<?xml version="1.0" encoding="utf-8" standalone="no"?>
<!DOCTYPE svg PUBLIC "-//W3C//DTD SVG 1.1//EN"
  "http://www.w3.org/Graphics/SVG/1.1/DTD/svg11.dtd">
<svg xmlns:xlink="http://www.w3.org/1999/xlink" width="1800pt" height="1152pt" viewBox="0 0 1800 1152" xmlns="http://www.w3.org/2000/svg" version="1.1">
 <metadata>
  <rdf:RDF xmlns:dc="http://purl.org/dc/elements/1.1/" xmlns:cc="http://creativecommons.org/ns#" xmlns:rdf="http://www.w3.org/1999/02/22-rdf-syntax-ns#">
   <cc:Work>
    <dc:type rdf:resource="http://purl.org/dc/dcmitype/StillImage"/>
    <dc:date>2024-04-25T22:42:31.984775</dc:date>
    <dc:format>image/svg+xml</dc:format>
    <dc:creator>
     <cc:Agent>
      <dc:title>Matplotlib v3.8.2, https://matplotlib.org/</dc:title>
     </cc:Agent>
    </dc:creator>
   </cc:Work>
  </rdf:RDF>
 </metadata>
 <defs>
  <style type="text/css">*{stroke-linejoin: round; stroke-linecap: butt}</style>
 </defs>
 <g id="figure_1">
  <g id="patch_1">
   <path d="M 0 1152 
L 1800 1152 
L 1800 0 
L 0 0 
z
" style="fill: #ffffff"/>
  </g>
  <g id="axes_1">
   <g id="LineCollection_1">
    <path d="M 358.341876 597.888196 
L 346.053719 600.206675 
" clip-path="url(#pdc5a4b92f3)" style="fill: none; stroke: #000000"/>
    <path d="M 381.318312 597.888196 
L 370.435557 605.066646 
" clip-path="url(#pdc5a4b92f3)" style="fill: none; stroke: #000000; stroke-width: 4"/>
    <path d="M 404.294749 597.888196 
L 397.011593 748.639423 
" clip-path="url(#pdc5a4b92f3)" style="fill: none; stroke: #000000"/>
    <path d="M 427.271186 597.888196 
L 422.132741 360.981716 
" clip-path="url(#pdc5a4b92f3)" style="fill: none; stroke: #000000; stroke-width: 3"/>
    <path d="M 450.247623 597.888196 
L 746.598901 602.528883 
" clip-path="url(#pdc5a4b92f3)" style="fill: none; stroke: #000000; stroke-width: 4"/>
    <path d="M 746.598901 602.528883 
L 932.752797 597.888196 
" clip-path="url(#pdc5a4b92f3)" style="fill: none; stroke: #000000; stroke-width: 4"/>
    <path d="M 746.598901 602.528883 
L 978.705671 597.888196 
" clip-path="url(#pdc5a4b92f3)" style="fill: none; stroke: #000000; stroke-width: 5"/>
    <path d="M 473.22406 597.888196 
L 1346.32866 597.888196 
" clip-path="url(#pdc5a4b92f3)" style="fill: none; stroke: #000000; stroke-width: 2"/>
    <path d="M 1346.32866 597.888196 
L 1254.422913 597.888196 
" clip-path="url(#pdc5a4b92f3)" style="fill: none; stroke: #000000; stroke-width: 2"/>
    <path d="M 1346.32866 597.888196 
L 1351.128691 825.905403 
" clip-path="url(#pdc5a4b92f3)" style="fill: none; stroke: #000000; stroke-width: 2"/>
    <path d="M 542.15337 597.888196 
L 532.377178 806.551546 
" clip-path="url(#pdc5a4b92f3)" style="fill: none; stroke: #000000; stroke-width: 3"/>
    <path d="M 542.15337 597.888196 
L 840.84705 597.888196 
" clip-path="url(#pdc5a4b92f3)" style="fill: none; stroke: #000000; stroke-width: 3"/>
    <path d="M 542.15337 597.888196 
L 530.403692 380.703268 
" clip-path="url(#pdc5a4b92f3)" style="fill: none; stroke: #000000; stroke-width: 3"/>
    <path d="M 840.84705 597.888196 
L 839.772296 812.638497 
" clip-path="url(#pdc5a4b92f3)" style="fill: none; stroke: #000000; stroke-width: 4"/>
    <path d="M 565.129807 597.888196 
L 680.011992 597.888196 
" clip-path="url(#pdc5a4b92f3)" style="fill: none; stroke: #000000; stroke-width: 2"/>
    <path d="M 680.011992 597.888196 
L 673.259435 596.282367 
" clip-path="url(#pdc5a4b92f3)" style="fill: none; stroke: #000000; stroke-width: 3"/>
    <path d="M 588.106244 597.888196 
L 581.302379 711.657028 
" clip-path="url(#pdc5a4b92f3)" style="fill: none; stroke: #000000; stroke-width: 2"/>
    <path d="M 611.082681 597.888196 
L 604.212583 857.32443 
" clip-path="url(#pdc5a4b92f3)" style="fill: none; stroke: #000000; stroke-width: 5"/>
    <path d="M 634.059118 597.888196 
L 627.577297 296.650001 
" clip-path="url(#pdc5a4b92f3)" style="fill: none; stroke: #000000; stroke-width: 2"/>
    <path d="M 657.035555 597.888196 
L 1323.352224 597.888196 
" clip-path="url(#pdc5a4b92f3)" style="fill: none; stroke: #000000; stroke-width: 2"/>
    <path d="M 1323.352224 597.888196 
L 1162.517166 597.888196 
" clip-path="url(#pdc5a4b92f3)" style="fill: none; stroke: #000000; stroke-width: 2"/>
    <path d="M 1323.352224 597.888196 
L 1329.708866 409.085547 
" clip-path="url(#pdc5a4b92f3)" style="fill: none; stroke: #000000; stroke-width: 2"/>
    <path d="M 702.988428 597.888196 
L 695.96047 313.275177 
" clip-path="url(#pdc5a4b92f3)" style="fill: none; stroke: #000000"/>
    <path d="M 748.941302 597.888196 
L 817.870613 597.888196 
" clip-path="url(#pdc5a4b92f3)" style="fill: none; stroke: #000000; stroke-width: 3"/>
    <path d="M 748.941302 597.888196 
L 741.329433 326.133576 
" clip-path="url(#pdc5a4b92f3)" style="fill: none; stroke: #000000; stroke-width: 3"/>
    <path d="M 817.870613 597.888196 
L 930.107742 604.972634 
" clip-path="url(#pdc5a4b92f3)" style="fill: none; stroke: #000000; stroke-width: 2"/>
    <path d="M 771.917739 597.888196 
L 763.651398 403.864625 
" clip-path="url(#pdc5a4b92f3)" style="fill: none; stroke: #000000; stroke-width: 5"/>
    <path d="M 794.894176 597.888196 
L 794.966502 376.940839 
" clip-path="url(#pdc5a4b92f3)" style="fill: none; stroke: #000000; stroke-width: 3"/>
    <path d="M 930.107742 604.972634 
L 1047.634981 597.888196 
" clip-path="url(#pdc5a4b92f3)" style="fill: none; stroke: #000000; stroke-width: 2"/>
    <path d="M 886.799923 597.888196 
L 884.798246 892.372374 
" clip-path="url(#pdc5a4b92f3)" style="fill: none; stroke: #000000; stroke-width: 3"/>
    <path d="M 886.799923 597.888196 
L 888.140328 337.023147 
" clip-path="url(#pdc5a4b92f3)" style="fill: none; stroke: #000000; stroke-width: 2"/>
    <path d="M 932.752797 597.888196 
L 940.642956 494.354314 
" clip-path="url(#pdc5a4b92f3)" style="fill: none; stroke: #000000; stroke-width: 4"/>
    <path d="M 978.705671 597.888196 
L 976.131116 845.850016 
" clip-path="url(#pdc5a4b92f3)" style="fill: none; stroke: #000000; stroke-width: 7"/>
    <path d="M 1001.682108 597.888196 
L 998.202199 215.214545 
" clip-path="url(#pdc5a4b92f3)" style="fill: none; stroke: #000000; stroke-width: 4"/>
    <path d="M 1024.658544 597.888196 
L 1025.85965 792.339186 
" clip-path="url(#pdc5a4b92f3)" style="fill: none; stroke: #000000; stroke-width: 2"/>
    <path d="M 1070.611418 597.888196 
L 1069.001337 325.901387 
" clip-path="url(#pdc5a4b92f3)" style="fill: none; stroke: #000000"/>
    <path d="M 1093.587855 597.888196 
L 1095.628 454.849295 
" clip-path="url(#pdc5a4b92f3)" style="fill: none; stroke: #000000; stroke-width: 2"/>
    <path d="M 1116.564292 597.888196 
L 1118.65631 448.76263 
" clip-path="url(#pdc5a4b92f3)" style="fill: none; stroke: #000000"/>
    <path d="M 1139.540729 597.888196 
L 1142.700817 830.974436 
" clip-path="url(#pdc5a4b92f3)" style="fill: none; stroke: #000000; stroke-width: 3"/>
    <path d="M 1185.493602 597.888196 
L 1189.436053 886.798424 
" clip-path="url(#pdc5a4b92f3)" style="fill: none; stroke: #000000; stroke-width: 3"/>
    <path d="M 1208.470039 597.888196 
L 1210.74234 770.411987 
" clip-path="url(#pdc5a4b92f3)" style="fill: none; stroke: #000000; stroke-width: 3"/>
    <path d="M 1231.446476 597.888196 
L 1237.276432 406.482835 
" clip-path="url(#pdc5a4b92f3)" style="fill: none; stroke: #000000"/>
    <path d="M 1277.39935 597.888196 
L 1283.285154 948.305455 
" clip-path="url(#pdc5a4b92f3)" style="fill: none; stroke: #000000"/>
    <path d="M 1300.375787 597.888196 
L 1308.311088 603.224071 
" clip-path="url(#pdc5a4b92f3)" style="fill: none; stroke: #000000"/>
    <path d="M 1369.305097 597.888196 
L 1375.10418 307.124321 
" clip-path="url(#pdc5a4b92f3)" style="fill: none; stroke: #000000; stroke-width: 2"/>
    <path d="M 1392.281534 597.888196 
L 1400.343037 740.397405 
" clip-path="url(#pdc5a4b92f3)" style="fill: none; stroke: #000000; stroke-width: 3"/>
    <path d="M 1415.257971 597.888196 
L 1428.832966 707.340664 
" clip-path="url(#pdc5a4b92f3)" style="fill: none; stroke: #000000"/>
    <path d="M 1438.234408 597.888196 
L 1451.502696 510.074396 
" clip-path="url(#pdc5a4b92f3)" style="fill: none; stroke: #000000; stroke-width: 4"/>
    <path d="M 1461.210845 597.888196 
L 1468.987584 599.570491 
" clip-path="url(#pdc5a4b92f3)" style="fill: none; stroke: #000000; stroke-width: 3"/>
    <path d="M 1484.187282 597.888196 
L 1498.946281 598.492989 
" clip-path="url(#pdc5a4b92f3)" style="fill: none; stroke: #000000; stroke-width: 3"/>
   </g>
   <g id="PathCollection_1">
    <defs>
     <path id="m660f26529d" d="M 0 11.18034 
C 2.965061 11.18034 5.80908 10.002309 7.905694 7.905694 
C 10.002309 5.80908 11.18034 2.965061 11.18034 0 
C 11.18034 -2.965061 10.002309 -5.80908 7.905694 -7.905694 
C 5.80908 -10.002309 2.965061 -11.18034 0 -11.18034 
C -2.965061 -11.18034 -5.80908 -10.002309 -7.905694 -7.905694 
C -10.002309 -5.80908 -11.18034 -2.965061 -11.18034 0 
C -11.18034 2.965061 -10.002309 5.80908 -7.905694 7.905694 
C -5.80908 10.002309 -2.965061 11.18034 0 11.18034 
z
" style="stroke: #000000"/>
    </defs>
    <g clip-path="url(#pdc5a4b92f3)">
     <use xlink:href="#m660f26529d" x="358.341876" y="597.888196" style="fill: #a0cbe2; stroke: #000000"/>
     <use xlink:href="#m660f26529d" x="346.053719" y="600.206675" style="fill: #a0cbe2; stroke: #000000"/>
     <use xlink:href="#m660f26529d" x="381.318312" y="597.888196" style="fill: #a0cbe2; stroke: #000000"/>
     <use xlink:href="#m660f26529d" x="370.435557" y="605.066646" style="fill: #a0cbe2; stroke: #000000"/>
     <use xlink:href="#m660f26529d" x="404.294749" y="597.888196" style="fill: #a0cbe2; stroke: #000000"/>
     <use xlink:href="#m660f26529d" x="397.011593" y="748.639423" style="fill: #a0cbe2; stroke: #000000"/>
     <use xlink:href="#m660f26529d" x="427.271186" y="597.888196" style="fill: #a0cbe2; stroke: #000000"/>
     <use xlink:href="#m660f26529d" x="422.132741" y="360.981716" style="fill: #a0cbe2; stroke: #000000"/>
     <use xlink:href="#m660f26529d" x="450.247623" y="597.888196" style="fill: #a0cbe2; stroke: #000000"/>
     <use xlink:href="#m660f26529d" x="746.598901" y="602.528883" style="fill: #a0cbe2; stroke: #000000"/>
     <use xlink:href="#m660f26529d" x="473.22406" y="597.888196" style="fill: #a0cbe2; stroke: #000000"/>
     <use xlink:href="#m660f26529d" x="1346.32866" y="597.888196" style="fill: #a0cbe2; stroke: #000000"/>
     <use xlink:href="#m660f26529d" x="542.15337" y="597.888196" style="fill: #a0cbe2; stroke: #000000"/>
     <use xlink:href="#m660f26529d" x="532.377178" y="806.551546" style="fill: #a0cbe2; stroke: #000000"/>
     <use xlink:href="#m660f26529d" x="840.84705" y="597.888196" style="fill: #a0cbe2; stroke: #000000"/>
     <use xlink:href="#m660f26529d" x="530.403692" y="380.703268" style="fill: #a0cbe2; stroke: #000000"/>
     <use xlink:href="#m660f26529d" x="565.129807" y="597.888196" style="fill: #a0cbe2; stroke: #000000"/>
     <use xlink:href="#m660f26529d" x="680.011992" y="597.888196" style="fill: #a0cbe2; stroke: #000000"/>
     <use xlink:href="#m660f26529d" x="588.106244" y="597.888196" style="fill: #a0cbe2; stroke: #000000"/>
     <use xlink:href="#m660f26529d" x="581.302379" y="711.657028" style="fill: #a0cbe2; stroke: #000000"/>
     <use xlink:href="#m660f26529d" x="611.082681" y="597.888196" style="fill: #a0cbe2; stroke: #000000"/>
     <use xlink:href="#m660f26529d" x="604.212583" y="857.32443" style="fill: #a0cbe2; stroke: #000000"/>
     <use xlink:href="#m660f26529d" x="634.059118" y="597.888196" style="fill: #a0cbe2; stroke: #000000"/>
     <use xlink:href="#m660f26529d" x="627.577297" y="296.650001" style="fill: #a0cbe2; stroke: #000000"/>
     <use xlink:href="#m660f26529d" x="657.035555" y="597.888196" style="fill: #a0cbe2; stroke: #000000"/>
     <use xlink:href="#m660f26529d" x="1323.352224" y="597.888196" style="fill: #a0cbe2; stroke: #000000"/>
     <use xlink:href="#m660f26529d" x="673.259435" y="596.282367" style="fill: #a0cbe2; stroke: #000000"/>
     <use xlink:href="#m660f26529d" x="702.988428" y="597.888196" style="fill: #a0cbe2; stroke: #000000"/>
     <use xlink:href="#m660f26529d" x="695.96047" y="313.275177" style="fill: #a0cbe2; stroke: #000000"/>
     <use xlink:href="#m660f26529d" x="748.941302" y="597.888196" style="fill: #a0cbe2; stroke: #000000"/>
     <use xlink:href="#m660f26529d" x="817.870613" y="597.888196" style="fill: #a0cbe2; stroke: #000000"/>
     <use xlink:href="#m660f26529d" x="741.329433" y="326.133576" style="fill: #a0cbe2; stroke: #000000"/>
     <use xlink:href="#m660f26529d" x="771.917739" y="597.888196" style="fill: #a0cbe2; stroke: #000000"/>
     <use xlink:href="#m660f26529d" x="763.651398" y="403.864625" style="fill: #a0cbe2; stroke: #000000"/>
     <use xlink:href="#m660f26529d" x="794.894176" y="597.888196" style="fill: #a0cbe2; stroke: #000000"/>
     <use xlink:href="#m660f26529d" x="794.966502" y="376.940839" style="fill: #a0cbe2; stroke: #000000"/>
     <use xlink:href="#m660f26529d" x="930.107742" y="604.972634" style="fill: #a0cbe2; stroke: #000000"/>
     <use xlink:href="#m660f26529d" x="839.772296" y="812.638497" style="fill: #a0cbe2; stroke: #000000"/>
     <use xlink:href="#m660f26529d" x="886.799923" y="597.888196" style="fill: #a0cbe2; stroke: #000000"/>
     <use xlink:href="#m660f26529d" x="884.798246" y="892.372374" style="fill: #a0cbe2; stroke: #000000"/>
     <use xlink:href="#m660f26529d" x="888.140328" y="337.023147" style="fill: #a0cbe2; stroke: #000000"/>
     <use xlink:href="#m660f26529d" x="932.752797" y="597.888196" style="fill: #a0cbe2; stroke: #000000"/>
     <use xlink:href="#m660f26529d" x="940.642956" y="494.354314" style="fill: #a0cbe2; stroke: #000000"/>
     <use xlink:href="#m660f26529d" x="978.705671" y="597.888196" style="fill: #a0cbe2; stroke: #000000"/>
     <use xlink:href="#m660f26529d" x="976.131116" y="845.850016" style="fill: #a0cbe2; stroke: #000000"/>
     <use xlink:href="#m660f26529d" x="1001.682108" y="597.888196" style="fill: #a0cbe2; stroke: #000000"/>
     <use xlink:href="#m660f26529d" x="998.202199" y="215.214545" style="fill: #a0cbe2; stroke: #000000"/>
     <use xlink:href="#m660f26529d" x="1024.658544" y="597.888196" style="fill: #a0cbe2; stroke: #000000"/>
     <use xlink:href="#m660f26529d" x="1025.85965" y="792.339186" style="fill: #a0cbe2; stroke: #000000"/>
     <use xlink:href="#m660f26529d" x="1047.634981" y="597.888196" style="fill: #a0cbe2; stroke: #000000"/>
     <use xlink:href="#m660f26529d" x="1070.611418" y="597.888196" style="fill: #a0cbe2; stroke: #000000"/>
     <use xlink:href="#m660f26529d" x="1069.001337" y="325.901387" style="fill: #a0cbe2; stroke: #000000"/>
     <use xlink:href="#m660f26529d" x="1093.587855" y="597.888196" style="fill: #a0cbe2; stroke: #000000"/>
     <use xlink:href="#m660f26529d" x="1095.628" y="454.849295" style="fill: #a0cbe2; stroke: #000000"/>
     <use xlink:href="#m660f26529d" x="1116.564292" y="597.888196" style="fill: #a0cbe2; stroke: #000000"/>
     <use xlink:href="#m660f26529d" x="1118.65631" y="448.76263" style="fill: #a0cbe2; stroke: #000000"/>
     <use xlink:href="#m660f26529d" x="1139.540729" y="597.888196" style="fill: #a0cbe2; stroke: #000000"/>
     <use xlink:href="#m660f26529d" x="1142.700817" y="830.974436" style="fill: #a0cbe2; stroke: #000000"/>
     <use xlink:href="#m660f26529d" x="1162.517166" y="597.888196" style="fill: #a0cbe2; stroke: #000000"/>
     <use xlink:href="#m660f26529d" x="1185.493602" y="597.888196" style="fill: #a0cbe2; stroke: #000000"/>
     <use xlink:href="#m660f26529d" x="1189.436053" y="886.798424" style="fill: #a0cbe2; stroke: #000000"/>
     <use xlink:href="#m660f26529d" x="1208.470039" y="597.888196" style="fill: #a0cbe2; stroke: #000000"/>
     <use xlink:href="#m660f26529d" x="1210.74234" y="770.411987" style="fill: #a0cbe2; stroke: #000000"/>
     <use xlink:href="#m660f26529d" x="1231.446476" y="597.888196" style="fill: #a0cbe2; stroke: #000000"/>
     <use xlink:href="#m660f26529d" x="1237.276432" y="406.482835" style="fill: #a0cbe2; stroke: #000000"/>
     <use xlink:href="#m660f26529d" x="1254.422913" y="597.888196" style="fill: #a0cbe2; stroke: #000000"/>
     <use xlink:href="#m660f26529d" x="1277.39935" y="597.888196" style="fill: #a0cbe2; stroke: #000000"/>
     <use xlink:href="#m660f26529d" x="1283.285154" y="948.305455" style="fill: #a0cbe2; stroke: #000000"/>
     <use xlink:href="#m660f26529d" x="1300.375787" y="597.888196" style="fill: #a0cbe2; stroke: #000000"/>
     <use xlink:href="#m660f26529d" x="1308.311088" y="603.224071" style="fill: #a0cbe2; stroke: #000000"/>
     <use xlink:href="#m660f26529d" x="1329.708866" y="409.085547" style="fill: #a0cbe2; stroke: #000000"/>
     <use xlink:href="#m660f26529d" x="1351.128691" y="825.905403" style="fill: #a0cbe2; stroke: #000000"/>
     <use xlink:href="#m660f26529d" x="1369.305097" y="597.888196" style="fill: #a0cbe2; stroke: #000000"/>
     <use xlink:href="#m660f26529d" x="1375.10418" y="307.124321" style="fill: #a0cbe2; stroke: #000000"/>
     <use xlink:href="#m660f26529d" x="1392.281534" y="597.888196" style="fill: #a0cbe2; stroke: #000000"/>
     <use xlink:href="#m660f26529d" x="1400.343037" y="740.397405" style="fill: #a0cbe2; stroke: #000000"/>
     <use xlink:href="#m660f26529d" x="1415.257971" y="597.888196" style="fill: #a0cbe2; stroke: #000000"/>
     <use xlink:href="#m660f26529d" x="1428.832966" y="707.340664" style="fill: #a0cbe2; stroke: #000000"/>
     <use xlink:href="#m660f26529d" x="1438.234408" y="597.888196" style="fill: #a0cbe2; stroke: #000000"/>
     <use xlink:href="#m660f26529d" x="1451.502696" y="510.074396" style="fill: #a0cbe2; stroke: #000000"/>
     <use xlink:href="#m660f26529d" x="1461.210845" y="597.888196" style="fill: #a0cbe2; stroke: #000000"/>
     <use xlink:href="#m660f26529d" x="1468.987584" y="599.570491" style="fill: #a0cbe2; stroke: #000000"/>
     <use xlink:href="#m660f26529d" x="1484.187282" y="597.888196" style="fill: #a0cbe2; stroke: #000000"/>
     <use xlink:href="#m660f26529d" x="1498.946281" y="598.492989" style="fill: #a0cbe2; stroke: #000000"/>
    </g>
   </g>
   <g id="text_1">
    <g clip-path="url(#pdc5a4b92f3)">
     <!-- 1 -->
     <g transform="translate(355.478751 600.371633) scale(0.09 -0.09)">
      <defs>
       <path id="DejaVuSans-31" d="M 794 531 
L 1825 531 
L 1825 4091 
L 703 3866 
L 703 4441 
L 1819 4666 
L 2450 4666 
L 2450 531 
L 3481 531 
L 3481 0 
L 794 0 
L 794 531 
z
" transform="scale(0.015625)"/>
      </defs>
      <use xlink:href="#DejaVuSans-31"/>
     </g>
    </g>
   </g>
   <g id="text_2">
    <g clip-path="url(#pdc5a4b92f3)">
     <!-- 33 -->
     <g transform="translate(340.327469 602.690113) scale(0.09 -0.09)">
      <defs>
       <path id="DejaVuSans-33" d="M 2597 2516 
Q 3050 2419 3304 2112 
Q 3559 1806 3559 1356 
Q 3559 666 3084 287 
Q 2609 -91 1734 -91 
Q 1441 -91 1130 -33 
Q 819 25 488 141 
L 488 750 
Q 750 597 1062 519 
Q 1375 441 1716 441 
Q 2309 441 2620 675 
Q 2931 909 2931 1356 
Q 2931 1769 2642 2001 
Q 2353 2234 1838 2234 
L 1294 2234 
L 1294 2753 
L 1863 2753 
Q 2328 2753 2575 2939 
Q 2822 3125 2822 3475 
Q 2822 3834 2567 4026 
Q 2313 4219 1838 4219 
Q 1578 4219 1281 4162 
Q 984 4106 628 3988 
L 628 4550 
Q 988 4650 1302 4700 
Q 1616 4750 1894 4750 
Q 2613 4750 3031 4423 
Q 3450 4097 3450 3541 
Q 3450 3153 3228 2886 
Q 3006 2619 2597 2516 
z
" transform="scale(0.015625)"/>
      </defs>
      <use xlink:href="#DejaVuSans-33"/>
      <use xlink:href="#DejaVuSans-33" x="63.623047"/>
     </g>
    </g>
   </g>
   <g id="text_3">
    <g clip-path="url(#pdc5a4b92f3)">
     <!-- 10 -->
     <g transform="translate(375.592062 600.371633) scale(0.09 -0.09)">
      <defs>
       <path id="DejaVuSans-30" d="M 2034 4250 
Q 1547 4250 1301 3770 
Q 1056 3291 1056 2328 
Q 1056 1369 1301 889 
Q 1547 409 2034 409 
Q 2525 409 2770 889 
Q 3016 1369 3016 2328 
Q 3016 3291 2770 3770 
Q 2525 4250 2034 4250 
z
M 2034 4750 
Q 2819 4750 3233 4129 
Q 3647 3509 3647 2328 
Q 3647 1150 3233 529 
Q 2819 -91 2034 -91 
Q 1250 -91 836 529 
Q 422 1150 422 2328 
Q 422 3509 836 4129 
Q 1250 4750 2034 4750 
z
" transform="scale(0.015625)"/>
      </defs>
      <use xlink:href="#DejaVuSans-31"/>
      <use xlink:href="#DejaVuSans-30" x="63.623047"/>
     </g>
    </g>
   </g>
   <g id="text_4">
    <g clip-path="url(#pdc5a4b92f3)">
     <!-- 295 -->
     <g transform="translate(361.846182 607.550084) scale(0.09 -0.09)">
      <defs>
       <path id="DejaVuSans-32" d="M 1228 531 
L 3431 531 
L 3431 0 
L 469 0 
L 469 531 
Q 828 903 1448 1529 
Q 2069 2156 2228 2338 
Q 2531 2678 2651 2914 
Q 2772 3150 2772 3378 
Q 2772 3750 2511 3984 
Q 2250 4219 1831 4219 
Q 1534 4219 1204 4116 
Q 875 4013 500 3803 
L 500 4441 
Q 881 4594 1212 4672 
Q 1544 4750 1819 4750 
Q 2544 4750 2975 4387 
Q 3406 4025 3406 3419 
Q 3406 3131 3298 2873 
Q 3191 2616 2906 2266 
Q 2828 2175 2409 1742 
Q 1991 1309 1228 531 
z
" transform="scale(0.015625)"/>
       <path id="DejaVuSans-39" d="M 703 97 
L 703 672 
Q 941 559 1184 500 
Q 1428 441 1663 441 
Q 2288 441 2617 861 
Q 2947 1281 2994 2138 
Q 2813 1869 2534 1725 
Q 2256 1581 1919 1581 
Q 1219 1581 811 2004 
Q 403 2428 403 3163 
Q 403 3881 828 4315 
Q 1253 4750 1959 4750 
Q 2769 4750 3195 4129 
Q 3622 3509 3622 2328 
Q 3622 1225 3098 567 
Q 2575 -91 1691 -91 
Q 1453 -91 1209 -44 
Q 966 3 703 97 
z
M 1959 2075 
Q 2384 2075 2632 2365 
Q 2881 2656 2881 3163 
Q 2881 3666 2632 3958 
Q 2384 4250 1959 4250 
Q 1534 4250 1286 3958 
Q 1038 3666 1038 3163 
Q 1038 2656 1286 2365 
Q 1534 2075 1959 2075 
z
" transform="scale(0.015625)"/>
       <path id="DejaVuSans-35" d="M 691 4666 
L 3169 4666 
L 3169 4134 
L 1269 4134 
L 1269 2991 
Q 1406 3038 1543 3061 
Q 1681 3084 1819 3084 
Q 2600 3084 3056 2656 
Q 3513 2228 3513 1497 
Q 3513 744 3044 326 
Q 2575 -91 1722 -91 
Q 1428 -91 1123 -41 
Q 819 9 494 109 
L 494 744 
Q 775 591 1075 516 
Q 1375 441 1709 441 
Q 2250 441 2565 725 
Q 2881 1009 2881 1497 
Q 2881 1984 2565 2268 
Q 2250 2553 1709 2553 
Q 1456 2553 1204 2497 
Q 953 2441 691 2322 
L 691 4666 
z
" transform="scale(0.015625)"/>
      </defs>
      <use xlink:href="#DejaVuSans-32"/>
      <use xlink:href="#DejaVuSans-39" x="63.623047"/>
      <use xlink:href="#DejaVuSans-35" x="127.246094"/>
     </g>
    </g>
   </g>
   <g id="text_5">
    <g clip-path="url(#pdc5a4b92f3)">
     <!-- 11 -->
     <g transform="translate(398.568499 600.371633) scale(0.09 -0.09)">
      <use xlink:href="#DejaVuSans-31"/>
      <use xlink:href="#DejaVuSans-31" x="63.623047"/>
     </g>
    </g>
   </g>
   <g id="text_6">
    <g clip-path="url(#pdc5a4b92f3)">
     <!-- 93 -->
     <g transform="translate(391.285343 751.12286) scale(0.09 -0.09)">
      <use xlink:href="#DejaVuSans-39"/>
      <use xlink:href="#DejaVuSans-33" x="63.623047"/>
     </g>
    </g>
   </g>
   <g id="text_7">
    <g clip-path="url(#pdc5a4b92f3)">
     <!-- 28 -->
     <g transform="translate(421.544936 600.371633) scale(0.09 -0.09)">
      <defs>
       <path id="DejaVuSans-38" d="M 2034 2216 
Q 1584 2216 1326 1975 
Q 1069 1734 1069 1313 
Q 1069 891 1326 650 
Q 1584 409 2034 409 
Q 2484 409 2743 651 
Q 3003 894 3003 1313 
Q 3003 1734 2745 1975 
Q 2488 2216 2034 2216 
z
M 1403 2484 
Q 997 2584 770 2862 
Q 544 3141 544 3541 
Q 544 4100 942 4425 
Q 1341 4750 2034 4750 
Q 2731 4750 3128 4425 
Q 3525 4100 3525 3541 
Q 3525 3141 3298 2862 
Q 3072 2584 2669 2484 
Q 3125 2378 3379 2068 
Q 3634 1759 3634 1313 
Q 3634 634 3220 271 
Q 2806 -91 2034 -91 
Q 1263 -91 848 271 
Q 434 634 434 1313 
Q 434 1759 690 2068 
Q 947 2378 1403 2484 
z
M 1172 3481 
Q 1172 3119 1398 2916 
Q 1625 2713 2034 2713 
Q 2441 2713 2670 2916 
Q 2900 3119 2900 3481 
Q 2900 3844 2670 4047 
Q 2441 4250 2034 4250 
Q 1625 4250 1398 4047 
Q 1172 3844 1172 3481 
z
" transform="scale(0.015625)"/>
      </defs>
      <use xlink:href="#DejaVuSans-32"/>
      <use xlink:href="#DejaVuSans-38" x="63.623047"/>
     </g>
    </g>
   </g>
   <g id="text_8">
    <g clip-path="url(#pdc5a4b92f3)">
     <!-- 84 -->
     <g transform="translate(416.406491 363.465153) scale(0.09 -0.09)">
      <defs>
       <path id="DejaVuSans-34" d="M 2419 4116 
L 825 1625 
L 2419 1625 
L 2419 4116 
z
M 2253 4666 
L 3047 4666 
L 3047 1625 
L 3713 1625 
L 3713 1100 
L 3047 1100 
L 3047 0 
L 2419 0 
L 2419 1100 
L 313 1100 
L 313 1709 
L 2253 4666 
z
" transform="scale(0.015625)"/>
      </defs>
      <use xlink:href="#DejaVuSans-38"/>
      <use xlink:href="#DejaVuSans-34" x="63.623047"/>
     </g>
    </g>
   </g>
   <g id="text_9">
    <g clip-path="url(#pdc5a4b92f3)">
     <!-- 30 -->
     <g transform="translate(444.521373 600.371633) scale(0.09 -0.09)">
      <use xlink:href="#DejaVuSans-33"/>
      <use xlink:href="#DejaVuSans-30" x="63.623047"/>
     </g>
    </g>
   </g>
   <g id="text_10">
    <g clip-path="url(#pdc5a4b92f3)">
     <!-- 164 -->
     <g transform="translate(738.009526 605.01232) scale(0.09 -0.09)">
      <defs>
       <path id="DejaVuSans-36" d="M 2113 2584 
Q 1688 2584 1439 2293 
Q 1191 2003 1191 1497 
Q 1191 994 1439 701 
Q 1688 409 2113 409 
Q 2538 409 2786 701 
Q 3034 994 3034 1497 
Q 3034 2003 2786 2293 
Q 2538 2584 2113 2584 
z
M 3366 4563 
L 3366 3988 
Q 3128 4100 2886 4159 
Q 2644 4219 2406 4219 
Q 1781 4219 1451 3797 
Q 1122 3375 1075 2522 
Q 1259 2794 1537 2939 
Q 1816 3084 2150 3084 
Q 2853 3084 3261 2657 
Q 3669 2231 3669 1497 
Q 3669 778 3244 343 
Q 2819 -91 2113 -91 
Q 1303 -91 875 529 
Q 447 1150 447 2328 
Q 447 3434 972 4092 
Q 1497 4750 2381 4750 
Q 2619 4750 2861 4703 
Q 3103 4656 3366 4563 
z
" transform="scale(0.015625)"/>
      </defs>
      <use xlink:href="#DejaVuSans-31"/>
      <use xlink:href="#DejaVuSans-36" x="63.623047"/>
      <use xlink:href="#DejaVuSans-34" x="127.246094"/>
     </g>
    </g>
   </g>
   <g id="text_11">
    <g clip-path="url(#pdc5a4b92f3)">
     <!-- 47 -->
     <g transform="translate(467.49781 600.371633) scale(0.09 -0.09)">
      <defs>
       <path id="DejaVuSans-37" d="M 525 4666 
L 3525 4666 
L 3525 4397 
L 1831 0 
L 1172 0 
L 2766 4134 
L 525 4134 
L 525 4666 
z
" transform="scale(0.015625)"/>
      </defs>
      <use xlink:href="#DejaVuSans-34"/>
      <use xlink:href="#DejaVuSans-37" x="63.623047"/>
     </g>
    </g>
   </g>
   <g id="text_12">
    <g clip-path="url(#pdc5a4b92f3)">
     <!-- 297 -->
     <g transform="translate(1337.739285 600.371633) scale(0.09 -0.09)">
      <use xlink:href="#DejaVuSans-32"/>
      <use xlink:href="#DejaVuSans-39" x="63.623047"/>
      <use xlink:href="#DejaVuSans-37" x="127.246094"/>
     </g>
    </g>
   </g>
   <g id="text_13">
    <g clip-path="url(#pdc5a4b92f3)">
     <!-- 48 -->
     <g transform="translate(536.42712 600.371633) scale(0.09 -0.09)">
      <use xlink:href="#DejaVuSans-34"/>
      <use xlink:href="#DejaVuSans-38" x="63.623047"/>
     </g>
    </g>
   </g>
   <g id="text_14">
    <g clip-path="url(#pdc5a4b92f3)">
     <!-- 55 -->
     <g transform="translate(526.650928 809.034984) scale(0.09 -0.09)">
      <use xlink:href="#DejaVuSans-35"/>
      <use xlink:href="#DejaVuSans-35" x="63.623047"/>
     </g>
    </g>
   </g>
   <g id="text_15">
    <g clip-path="url(#pdc5a4b92f3)">
     <!-- 76 -->
     <g transform="translate(835.1208 600.371633) scale(0.09 -0.09)">
      <use xlink:href="#DejaVuSans-37"/>
      <use xlink:href="#DejaVuSans-36" x="63.623047"/>
     </g>
    </g>
   </g>
   <g id="text_16">
    <g clip-path="url(#pdc5a4b92f3)">
     <!-- 517 -->
     <g transform="translate(521.814317 383.186705) scale(0.09 -0.09)">
      <use xlink:href="#DejaVuSans-35"/>
      <use xlink:href="#DejaVuSans-31" x="63.623047"/>
      <use xlink:href="#DejaVuSans-37" x="127.246094"/>
     </g>
    </g>
   </g>
   <g id="text_17">
    <g clip-path="url(#pdc5a4b92f3)">
     <!-- 54 -->
     <g transform="translate(559.403557 600.371633) scale(0.09 -0.09)">
      <use xlink:href="#DejaVuSans-35"/>
      <use xlink:href="#DejaVuSans-34" x="63.623047"/>
     </g>
    </g>
   </g>
   <g id="text_18">
    <g clip-path="url(#pdc5a4b92f3)">
     <!-- 63 -->
     <g transform="translate(674.285742 600.371633) scale(0.09 -0.09)">
      <use xlink:href="#DejaVuSans-36"/>
      <use xlink:href="#DejaVuSans-33" x="63.623047"/>
     </g>
    </g>
   </g>
   <g id="text_19">
    <g clip-path="url(#pdc5a4b92f3)">
     <!-- 57 -->
     <g transform="translate(582.379994 600.371633) scale(0.09 -0.09)">
      <use xlink:href="#DejaVuSans-35"/>
      <use xlink:href="#DejaVuSans-37" x="63.623047"/>
     </g>
    </g>
   </g>
   <g id="text_20">
    <g clip-path="url(#pdc5a4b92f3)">
     <!-- 520 -->
     <g transform="translate(572.713004 714.140465) scale(0.09 -0.09)">
      <use xlink:href="#DejaVuSans-35"/>
      <use xlink:href="#DejaVuSans-32" x="63.623047"/>
      <use xlink:href="#DejaVuSans-30" x="127.246094"/>
     </g>
    </g>
   </g>
   <g id="text_21">
    <g clip-path="url(#pdc5a4b92f3)">
     <!-- 59 -->
     <g transform="translate(605.356431 600.371633) scale(0.09 -0.09)">
      <use xlink:href="#DejaVuSans-35"/>
      <use xlink:href="#DejaVuSans-39" x="63.623047"/>
     </g>
    </g>
   </g>
   <g id="text_22">
    <g clip-path="url(#pdc5a4b92f3)">
     <!-- 163 -->
     <g transform="translate(595.623208 859.807867) scale(0.09 -0.09)">
      <use xlink:href="#DejaVuSans-31"/>
      <use xlink:href="#DejaVuSans-36" x="63.623047"/>
      <use xlink:href="#DejaVuSans-33" x="127.246094"/>
     </g>
    </g>
   </g>
   <g id="text_23">
    <g clip-path="url(#pdc5a4b92f3)">
     <!-- 60 -->
     <g transform="translate(628.332868 600.371633) scale(0.09 -0.09)">
      <use xlink:href="#DejaVuSans-36"/>
      <use xlink:href="#DejaVuSans-30" x="63.623047"/>
     </g>
    </g>
   </g>
   <g id="text_24">
    <g clip-path="url(#pdc5a4b92f3)">
     <!-- 126 -->
     <g transform="translate(618.987922 299.133439) scale(0.09 -0.09)">
      <use xlink:href="#DejaVuSans-31"/>
      <use xlink:href="#DejaVuSans-32" x="63.623047"/>
      <use xlink:href="#DejaVuSans-36" x="127.246094"/>
     </g>
    </g>
   </g>
   <g id="text_25">
    <g clip-path="url(#pdc5a4b92f3)">
     <!-- 61 -->
     <g transform="translate(651.309305 600.371633) scale(0.09 -0.09)">
      <use xlink:href="#DejaVuSans-36"/>
      <use xlink:href="#DejaVuSans-31" x="63.623047"/>
     </g>
    </g>
   </g>
   <g id="text_26">
    <g clip-path="url(#pdc5a4b92f3)">
     <!-- 251 -->
     <g transform="translate(1314.762849 600.371633) scale(0.09 -0.09)">
      <use xlink:href="#DejaVuSans-32"/>
      <use xlink:href="#DejaVuSans-35" x="63.623047"/>
      <use xlink:href="#DejaVuSans-31" x="127.246094"/>
     </g>
    </g>
   </g>
   <g id="text_27">
    <g clip-path="url(#pdc5a4b92f3)">
     <!-- 129 -->
     <g transform="translate(664.67006 598.765805) scale(0.09 -0.09)">
      <use xlink:href="#DejaVuSans-31"/>
      <use xlink:href="#DejaVuSans-32" x="63.623047"/>
      <use xlink:href="#DejaVuSans-39" x="127.246094"/>
     </g>
    </g>
   </g>
   <g id="text_28">
    <g clip-path="url(#pdc5a4b92f3)">
     <!-- 67 -->
     <g transform="translate(697.262178 600.371633) scale(0.09 -0.09)">
      <use xlink:href="#DejaVuSans-36"/>
      <use xlink:href="#DejaVuSans-37" x="63.623047"/>
     </g>
    </g>
   </g>
   <g id="text_29">
    <g clip-path="url(#pdc5a4b92f3)">
     <!-- 494 -->
     <g transform="translate(687.371095 315.758614) scale(0.09 -0.09)">
      <use xlink:href="#DejaVuSans-34"/>
      <use xlink:href="#DejaVuSans-39" x="63.623047"/>
      <use xlink:href="#DejaVuSans-34" x="127.246094"/>
     </g>
    </g>
   </g>
   <g id="text_30">
    <g clip-path="url(#pdc5a4b92f3)">
     <!-- 68 -->
     <g transform="translate(743.215052 600.371633) scale(0.09 -0.09)">
      <use xlink:href="#DejaVuSans-36"/>
      <use xlink:href="#DejaVuSans-38" x="63.623047"/>
     </g>
    </g>
   </g>
   <g id="text_31">
    <g clip-path="url(#pdc5a4b92f3)">
     <!-- 72 -->
     <g transform="translate(812.144363 600.371633) scale(0.09 -0.09)">
      <use xlink:href="#DejaVuSans-37"/>
      <use xlink:href="#DejaVuSans-32" x="63.623047"/>
     </g>
    </g>
   </g>
   <g id="text_32">
    <g clip-path="url(#pdc5a4b92f3)">
     <!-- 120 -->
     <g transform="translate(732.740058 328.617014) scale(0.09 -0.09)">
      <use xlink:href="#DejaVuSans-31"/>
      <use xlink:href="#DejaVuSans-32" x="63.623047"/>
      <use xlink:href="#DejaVuSans-30" x="127.246094"/>
     </g>
    </g>
   </g>
   <g id="text_33">
    <g clip-path="url(#pdc5a4b92f3)">
     <!-- 70 -->
     <g transform="translate(766.191489 600.371633) scale(0.09 -0.09)">
      <use xlink:href="#DejaVuSans-37"/>
      <use xlink:href="#DejaVuSans-30" x="63.623047"/>
     </g>
    </g>
   </g>
   <g id="text_34">
    <g clip-path="url(#pdc5a4b92f3)">
     <!-- 562 -->
     <g transform="translate(755.062023 406.348063) scale(0.09 -0.09)">
      <use xlink:href="#DejaVuSans-35"/>
      <use xlink:href="#DejaVuSans-36" x="63.623047"/>
      <use xlink:href="#DejaVuSans-32" x="127.246094"/>
     </g>
    </g>
   </g>
   <g id="text_35">
    <g clip-path="url(#pdc5a4b92f3)">
     <!-- 71 -->
     <g transform="translate(789.167926 600.371633) scale(0.09 -0.09)">
      <use xlink:href="#DejaVuSans-37"/>
      <use xlink:href="#DejaVuSans-31" x="63.623047"/>
     </g>
    </g>
   </g>
   <g id="text_36">
    <g clip-path="url(#pdc5a4b92f3)">
     <!-- 256 -->
     <g transform="translate(786.377127 379.424276) scale(0.09 -0.09)">
      <use xlink:href="#DejaVuSans-32"/>
      <use xlink:href="#DejaVuSans-35" x="63.623047"/>
      <use xlink:href="#DejaVuSans-36" x="127.246094"/>
     </g>
    </g>
   </g>
   <g id="text_37">
    <g clip-path="url(#pdc5a4b92f3)">
     <!-- 604 -->
     <g transform="translate(921.518367 607.456072) scale(0.09 -0.09)">
      <use xlink:href="#DejaVuSans-36"/>
      <use xlink:href="#DejaVuSans-30" x="63.623047"/>
      <use xlink:href="#DejaVuSans-34" x="127.246094"/>
     </g>
    </g>
   </g>
   <g id="text_38">
    <g clip-path="url(#pdc5a4b92f3)">
     <!-- 261 -->
     <g transform="translate(831.182921 815.121935) scale(0.09 -0.09)">
      <use xlink:href="#DejaVuSans-32"/>
      <use xlink:href="#DejaVuSans-36" x="63.623047"/>
      <use xlink:href="#DejaVuSans-31" x="127.246094"/>
     </g>
    </g>
   </g>
   <g id="text_39">
    <g clip-path="url(#pdc5a4b92f3)">
     <!-- 79 -->
     <g transform="translate(881.073673 600.371633) scale(0.09 -0.09)">
      <use xlink:href="#DejaVuSans-37"/>
      <use xlink:href="#DejaVuSans-39" x="63.623047"/>
     </g>
    </g>
   </g>
   <g id="text_40">
    <g clip-path="url(#pdc5a4b92f3)">
     <!-- 102 -->
     <g transform="translate(876.208871 894.855812) scale(0.09 -0.09)">
      <use xlink:href="#DejaVuSans-31"/>
      <use xlink:href="#DejaVuSans-30" x="63.623047"/>
      <use xlink:href="#DejaVuSans-32" x="127.246094"/>
     </g>
    </g>
   </g>
   <g id="text_41">
    <g clip-path="url(#pdc5a4b92f3)">
     <!-- 347 -->
     <g transform="translate(879.550953 339.506584) scale(0.09 -0.09)">
      <use xlink:href="#DejaVuSans-33"/>
      <use xlink:href="#DejaVuSans-34" x="63.623047"/>
      <use xlink:href="#DejaVuSans-37" x="127.246094"/>
     </g>
    </g>
   </g>
   <g id="text_42">
    <g clip-path="url(#pdc5a4b92f3)">
     <!-- 80 -->
     <g transform="translate(927.026547 600.371633) scale(0.09 -0.09)">
      <use xlink:href="#DejaVuSans-38"/>
      <use xlink:href="#DejaVuSans-30" x="63.623047"/>
     </g>
    </g>
   </g>
   <g id="text_43">
    <g clip-path="url(#pdc5a4b92f3)">
     <!-- 166 -->
     <g transform="translate(932.053581 496.837751) scale(0.09 -0.09)">
      <use xlink:href="#DejaVuSans-31"/>
      <use xlink:href="#DejaVuSans-36" x="63.623047"/>
      <use xlink:href="#DejaVuSans-36" x="127.246094"/>
     </g>
    </g>
   </g>
   <g id="text_44">
    <g clip-path="url(#pdc5a4b92f3)">
     <!-- 81 -->
     <g transform="translate(972.979421 600.371633) scale(0.09 -0.09)">
      <use xlink:href="#DejaVuSans-38"/>
      <use xlink:href="#DejaVuSans-31" x="63.623047"/>
     </g>
    </g>
   </g>
   <g id="text_45">
    <g clip-path="url(#pdc5a4b92f3)">
     <!-- 116 -->
     <g transform="translate(967.541741 848.333454) scale(0.09 -0.09)">
      <use xlink:href="#DejaVuSans-31"/>
      <use xlink:href="#DejaVuSans-31" x="63.623047"/>
      <use xlink:href="#DejaVuSans-36" x="127.246094"/>
     </g>
    </g>
   </g>
   <g id="text_46">
    <g clip-path="url(#pdc5a4b92f3)">
     <!-- 82 -->
     <g transform="translate(995.955858 600.371633) scale(0.09 -0.09)">
      <use xlink:href="#DejaVuSans-38"/>
      <use xlink:href="#DejaVuSans-32" x="63.623047"/>
     </g>
    </g>
   </g>
   <g id="text_47">
    <g clip-path="url(#pdc5a4b92f3)">
     <!-- 132 -->
     <g transform="translate(989.612824 217.697983) scale(0.09 -0.09)">
      <use xlink:href="#DejaVuSans-31"/>
      <use xlink:href="#DejaVuSans-33" x="63.623047"/>
      <use xlink:href="#DejaVuSans-32" x="127.246094"/>
     </g>
    </g>
   </g>
   <g id="text_48">
    <g clip-path="url(#pdc5a4b92f3)">
     <!-- 83 -->
     <g transform="translate(1018.932294 600.371633) scale(0.09 -0.09)">
      <use xlink:href="#DejaVuSans-38"/>
      <use xlink:href="#DejaVuSans-33" x="63.623047"/>
     </g>
    </g>
   </g>
   <g id="text_49">
    <g clip-path="url(#pdc5a4b92f3)">
     <!-- 113 -->
     <g transform="translate(1017.270275 794.822623) scale(0.09 -0.09)">
      <use xlink:href="#DejaVuSans-31"/>
      <use xlink:href="#DejaVuSans-31" x="63.623047"/>
      <use xlink:href="#DejaVuSans-33" x="127.246094"/>
     </g>
    </g>
   </g>
   <g id="text_50">
    <g clip-path="url(#pdc5a4b92f3)">
     <!-- 86 -->
     <g transform="translate(1041.908731 600.371633) scale(0.09 -0.09)">
      <use xlink:href="#DejaVuSans-38"/>
      <use xlink:href="#DejaVuSans-36" x="63.623047"/>
     </g>
    </g>
   </g>
   <g id="text_51">
    <g clip-path="url(#pdc5a4b92f3)">
     <!-- 98 -->
     <g transform="translate(1064.885168 600.371633) scale(0.09 -0.09)">
      <use xlink:href="#DejaVuSans-39"/>
      <use xlink:href="#DejaVuSans-38" x="63.623047"/>
     </g>
    </g>
   </g>
   <g id="text_52">
    <g clip-path="url(#pdc5a4b92f3)">
     <!-- 501 -->
     <g transform="translate(1060.411962 328.384825) scale(0.09 -0.09)">
      <use xlink:href="#DejaVuSans-35"/>
      <use xlink:href="#DejaVuSans-30" x="63.623047"/>
      <use xlink:href="#DejaVuSans-31" x="127.246094"/>
     </g>
    </g>
   </g>
   <g id="text_53">
    <g clip-path="url(#pdc5a4b92f3)">
     <!-- 114 -->
     <g transform="translate(1084.99848 600.371633) scale(0.09 -0.09)">
      <use xlink:href="#DejaVuSans-31"/>
      <use xlink:href="#DejaVuSans-31" x="63.623047"/>
      <use xlink:href="#DejaVuSans-34" x="127.246094"/>
     </g>
    </g>
   </g>
   <g id="text_54">
    <g clip-path="url(#pdc5a4b92f3)">
     <!-- 299 -->
     <g transform="translate(1087.038625 457.332732) scale(0.09 -0.09)">
      <use xlink:href="#DejaVuSans-32"/>
      <use xlink:href="#DejaVuSans-39" x="63.623047"/>
      <use xlink:href="#DejaVuSans-39" x="127.246094"/>
     </g>
    </g>
   </g>
   <g id="text_55">
    <g clip-path="url(#pdc5a4b92f3)">
     <!-- 115 -->
     <g transform="translate(1107.974917 600.371633) scale(0.09 -0.09)">
      <use xlink:href="#DejaVuSans-31"/>
      <use xlink:href="#DejaVuSans-31" x="63.623047"/>
      <use xlink:href="#DejaVuSans-35" x="127.246094"/>
     </g>
    </g>
   </g>
   <g id="text_56">
    <g clip-path="url(#pdc5a4b92f3)">
     <!-- 314 -->
     <g transform="translate(1110.066935 451.246067) scale(0.09 -0.09)">
      <use xlink:href="#DejaVuSans-33"/>
      <use xlink:href="#DejaVuSans-31" x="63.623047"/>
      <use xlink:href="#DejaVuSans-34" x="127.246094"/>
     </g>
    </g>
   </g>
   <g id="text_57">
    <g clip-path="url(#pdc5a4b92f3)">
     <!-- 119 -->
     <g transform="translate(1130.951354 600.371633) scale(0.09 -0.09)">
      <use xlink:href="#DejaVuSans-31"/>
      <use xlink:href="#DejaVuSans-31" x="63.623047"/>
      <use xlink:href="#DejaVuSans-39" x="127.246094"/>
     </g>
    </g>
   </g>
   <g id="text_58">
    <g clip-path="url(#pdc5a4b92f3)">
     <!-- 349 -->
     <g transform="translate(1134.111442 833.457874) scale(0.09 -0.09)">
      <use xlink:href="#DejaVuSans-33"/>
      <use xlink:href="#DejaVuSans-34" x="63.623047"/>
      <use xlink:href="#DejaVuSans-39" x="127.246094"/>
     </g>
    </g>
   </g>
   <g id="text_59">
    <g clip-path="url(#pdc5a4b92f3)">
     <!-- 122 -->
     <g transform="translate(1153.927791 600.371633) scale(0.09 -0.09)">
      <use xlink:href="#DejaVuSans-31"/>
      <use xlink:href="#DejaVuSans-32" x="63.623047"/>
      <use xlink:href="#DejaVuSans-32" x="127.246094"/>
     </g>
    </g>
   </g>
   <g id="text_60">
    <g clip-path="url(#pdc5a4b92f3)">
     <!-- 128 -->
     <g transform="translate(1176.904227 600.371633) scale(0.09 -0.09)">
      <use xlink:href="#DejaVuSans-31"/>
      <use xlink:href="#DejaVuSans-32" x="63.623047"/>
      <use xlink:href="#DejaVuSans-38" x="127.246094"/>
     </g>
    </g>
   </g>
   <g id="text_61">
    <g clip-path="url(#pdc5a4b92f3)">
     <!-- 613 -->
     <g transform="translate(1180.846678 889.281861) scale(0.09 -0.09)">
      <use xlink:href="#DejaVuSans-36"/>
      <use xlink:href="#DejaVuSans-31" x="63.623047"/>
      <use xlink:href="#DejaVuSans-33" x="127.246094"/>
     </g>
    </g>
   </g>
   <g id="text_62">
    <g clip-path="url(#pdc5a4b92f3)">
     <!-- 151 -->
     <g transform="translate(1199.880664 600.371633) scale(0.09 -0.09)">
      <use xlink:href="#DejaVuSans-31"/>
      <use xlink:href="#DejaVuSans-35" x="63.623047"/>
      <use xlink:href="#DejaVuSans-31" x="127.246094"/>
     </g>
    </g>
   </g>
   <g id="text_63">
    <g clip-path="url(#pdc5a4b92f3)">
     <!-- 539 -->
     <g transform="translate(1202.152965 772.895425) scale(0.09 -0.09)">
      <use xlink:href="#DejaVuSans-35"/>
      <use xlink:href="#DejaVuSans-33" x="63.623047"/>
      <use xlink:href="#DejaVuSans-39" x="127.246094"/>
     </g>
    </g>
   </g>
   <g id="text_64">
    <g clip-path="url(#pdc5a4b92f3)">
     <!-- 155 -->
     <g transform="translate(1222.857101 600.371633) scale(0.09 -0.09)">
      <use xlink:href="#DejaVuSans-31"/>
      <use xlink:href="#DejaVuSans-35" x="63.623047"/>
      <use xlink:href="#DejaVuSans-35" x="127.246094"/>
     </g>
    </g>
   </g>
   <g id="text_65">
    <g clip-path="url(#pdc5a4b92f3)">
     <!-- 324 -->
     <g transform="translate(1228.687057 408.966273) scale(0.09 -0.09)">
      <use xlink:href="#DejaVuSans-33"/>
      <use xlink:href="#DejaVuSans-32" x="63.623047"/>
      <use xlink:href="#DejaVuSans-34" x="127.246094"/>
     </g>
    </g>
   </g>
   <g id="text_66">
    <g clip-path="url(#pdc5a4b92f3)">
     <!-- 170 -->
     <g transform="translate(1245.833538 600.371633) scale(0.09 -0.09)">
      <use xlink:href="#DejaVuSans-31"/>
      <use xlink:href="#DejaVuSans-37" x="63.623047"/>
      <use xlink:href="#DejaVuSans-30" x="127.246094"/>
     </g>
    </g>
   </g>
   <g id="text_67">
    <g clip-path="url(#pdc5a4b92f3)">
     <!-- 187 -->
     <g transform="translate(1268.809975 600.371633) scale(0.09 -0.09)">
      <use xlink:href="#DejaVuSans-31"/>
      <use xlink:href="#DejaVuSans-38" x="63.623047"/>
      <use xlink:href="#DejaVuSans-37" x="127.246094"/>
     </g>
    </g>
   </g>
   <g id="text_68">
    <g clip-path="url(#pdc5a4b92f3)">
     <!-- 234 -->
     <g transform="translate(1274.695779 950.788892) scale(0.09 -0.09)">
      <use xlink:href="#DejaVuSans-32"/>
      <use xlink:href="#DejaVuSans-33" x="63.623047"/>
      <use xlink:href="#DejaVuSans-34" x="127.246094"/>
     </g>
    </g>
   </g>
   <g id="text_69">
    <g clip-path="url(#pdc5a4b92f3)">
     <!-- 193 -->
     <g transform="translate(1291.786412 600.371633) scale(0.09 -0.09)">
      <use xlink:href="#DejaVuSans-31"/>
      <use xlink:href="#DejaVuSans-39" x="63.623047"/>
      <use xlink:href="#DejaVuSans-33" x="127.246094"/>
     </g>
    </g>
   </g>
   <g id="text_70">
    <g clip-path="url(#pdc5a4b92f3)">
     <!-- 249 -->
     <g transform="translate(1299.721713 605.707509) scale(0.09 -0.09)">
      <use xlink:href="#DejaVuSans-32"/>
      <use xlink:href="#DejaVuSans-34" x="63.623047"/>
      <use xlink:href="#DejaVuSans-39" x="127.246094"/>
     </g>
    </g>
   </g>
   <g id="text_71">
    <g clip-path="url(#pdc5a4b92f3)">
     <!-- 329 -->
     <g transform="translate(1321.119491 411.568984) scale(0.09 -0.09)">
      <use xlink:href="#DejaVuSans-33"/>
      <use xlink:href="#DejaVuSans-32" x="63.623047"/>
      <use xlink:href="#DejaVuSans-39" x="127.246094"/>
     </g>
    </g>
   </g>
   <g id="text_72">
    <g clip-path="url(#pdc5a4b92f3)">
     <!-- 310 -->
     <g transform="translate(1342.539316 828.388841) scale(0.09 -0.09)">
      <use xlink:href="#DejaVuSans-33"/>
      <use xlink:href="#DejaVuSans-31" x="63.623047"/>
      <use xlink:href="#DejaVuSans-30" x="127.246094"/>
     </g>
    </g>
   </g>
   <g id="text_73">
    <g clip-path="url(#pdc5a4b92f3)">
     <!-- 300 -->
     <g transform="translate(1360.715722 600.371633) scale(0.09 -0.09)">
      <use xlink:href="#DejaVuSans-33"/>
      <use xlink:href="#DejaVuSans-30" x="63.623047"/>
      <use xlink:href="#DejaVuSans-30" x="127.246094"/>
     </g>
    </g>
   </g>
   <g id="text_74">
    <g clip-path="url(#pdc5a4b92f3)">
     <!-- 302 -->
     <g transform="translate(1366.514805 309.607759) scale(0.09 -0.09)">
      <use xlink:href="#DejaVuSans-33"/>
      <use xlink:href="#DejaVuSans-30" x="63.623047"/>
      <use xlink:href="#DejaVuSans-32" x="127.246094"/>
     </g>
    </g>
   </g>
   <g id="text_75">
    <g clip-path="url(#pdc5a4b92f3)">
     <!-- 331 -->
     <g transform="translate(1383.692159 600.371633) scale(0.09 -0.09)">
      <use xlink:href="#DejaVuSans-33"/>
      <use xlink:href="#DejaVuSans-33" x="63.623047"/>
      <use xlink:href="#DejaVuSans-31" x="127.246094"/>
     </g>
    </g>
   </g>
   <g id="text_76">
    <g clip-path="url(#pdc5a4b92f3)">
     <!-- 554 -->
     <g transform="translate(1391.753662 742.880842) scale(0.09 -0.09)">
      <use xlink:href="#DejaVuSans-35"/>
      <use xlink:href="#DejaVuSans-35" x="63.623047"/>
      <use xlink:href="#DejaVuSans-34" x="127.246094"/>
     </g>
    </g>
   </g>
   <g id="text_77">
    <g clip-path="url(#pdc5a4b92f3)">
     <!-- 337 -->
     <g transform="translate(1406.668596 600.371633) scale(0.09 -0.09)">
      <use xlink:href="#DejaVuSans-33"/>
      <use xlink:href="#DejaVuSans-33" x="63.623047"/>
      <use xlink:href="#DejaVuSans-37" x="127.246094"/>
     </g>
    </g>
   </g>
   <g id="text_78">
    <g clip-path="url(#pdc5a4b92f3)">
     <!-- 626 -->
     <g transform="translate(1420.243591 709.824102) scale(0.09 -0.09)">
      <use xlink:href="#DejaVuSans-36"/>
      <use xlink:href="#DejaVuSans-32" x="63.623047"/>
      <use xlink:href="#DejaVuSans-36" x="127.246094"/>
     </g>
    </g>
   </g>
   <g id="text_79">
    <g clip-path="url(#pdc5a4b92f3)">
     <!-- 359 -->
     <g transform="translate(1429.645033 600.371633) scale(0.09 -0.09)">
      <use xlink:href="#DejaVuSans-33"/>
      <use xlink:href="#DejaVuSans-35" x="63.623047"/>
      <use xlink:href="#DejaVuSans-39" x="127.246094"/>
     </g>
    </g>
   </g>
   <g id="text_80">
    <g clip-path="url(#pdc5a4b92f3)">
     <!-- 603 -->
     <g transform="translate(1442.913321 512.557833) scale(0.09 -0.09)">
      <use xlink:href="#DejaVuSans-36"/>
      <use xlink:href="#DejaVuSans-30" x="63.623047"/>
      <use xlink:href="#DejaVuSans-33" x="127.246094"/>
     </g>
    </g>
   </g>
   <g id="text_81">
    <g clip-path="url(#pdc5a4b92f3)">
     <!-- 538 -->
     <g transform="translate(1452.62147 600.371633) scale(0.09 -0.09)">
      <use xlink:href="#DejaVuSans-35"/>
      <use xlink:href="#DejaVuSans-33" x="63.623047"/>
      <use xlink:href="#DejaVuSans-38" x="127.246094"/>
     </g>
    </g>
   </g>
   <g id="text_82">
    <g clip-path="url(#pdc5a4b92f3)">
     <!-- 588 -->
     <g transform="translate(1460.398209 602.053929) scale(0.09 -0.09)">
      <use xlink:href="#DejaVuSans-35"/>
      <use xlink:href="#DejaVuSans-38" x="63.623047"/>
      <use xlink:href="#DejaVuSans-38" x="127.246094"/>
     </g>
    </g>
   </g>
   <g id="text_83">
    <g clip-path="url(#pdc5a4b92f3)">
     <!-- 551 -->
     <g transform="translate(1475.597907 600.371633) scale(0.09 -0.09)">
      <use xlink:href="#DejaVuSans-35"/>
      <use xlink:href="#DejaVuSans-35" x="63.623047"/>
      <use xlink:href="#DejaVuSans-31" x="127.246094"/>
     </g>
    </g>
   </g>
   <g id="text_84">
    <g clip-path="url(#pdc5a4b92f3)">
     <!-- 620 -->
     <g transform="translate(1490.356906 600.976426) scale(0.09 -0.09)">
      <use xlink:href="#DejaVuSans-36"/>
      <use xlink:href="#DejaVuSans-32" x="63.623047"/>
      <use xlink:href="#DejaVuSans-30" x="127.246094"/>
     </g>
    </g>
   </g>
  </g>
 </g>
 <defs>
  <clipPath id="pdc5a4b92f3">
   <rect x="225" y="138.24" width="1395" height="887.04"/>
  </clipPath>
 </defs>
</svg>
