<?xml version="1.0" encoding="utf-8" standalone="no"?>
<!DOCTYPE svg PUBLIC "-//W3C//DTD SVG 1.1//EN"
  "http://www.w3.org/Graphics/SVG/1.1/DTD/svg11.dtd">
<svg xmlns:xlink="http://www.w3.org/1999/xlink" width="1800pt" height="1152pt" viewBox="0 0 1800 1152" xmlns="http://www.w3.org/2000/svg" version="1.1">
 <metadata>
  <rdf:RDF xmlns:dc="http://purl.org/dc/elements/1.1/" xmlns:cc="http://creativecommons.org/ns#" xmlns:rdf="http://www.w3.org/1999/02/22-rdf-syntax-ns#">
   <cc:Work>
    <dc:type rdf:resource="http://purl.org/dc/dcmitype/StillImage"/>
    <dc:date>2024-04-23T20:54:59.187492</dc:date>
    <dc:format>image/svg+xml</dc:format>
    <dc:creator>
     <cc:Agent>
      <dc:title>Matplotlib v3.8.2, https://matplotlib.org/</dc:title>
     </cc:Agent>
    </dc:creator>
   </cc:Work>
  </rdf:RDF>
 </metadata>
 <defs>
  <style type="text/css">*{stroke-linejoin: round; stroke-linecap: butt}</style>
 </defs>
 <g id="figure_1">
  <g id="patch_1">
   <path d="M 0 1152 
L 1800 1152 
L 1800 0 
L 0 0 
z
" style="fill: #ffffff"/>
  </g>
  <g id="axes_1">
   <g id="LineCollection_1">
    <path d="M 386.591318 584.794972 
L 346.053719 604.310646 
" clip-path="url(#p9a98e20a60)" style="fill: none; stroke: #000000"/>
    <path d="M 408.397616 584.794972 
L 372.419169 483.190914 
" clip-path="url(#p9a98e20a60)" style="fill: none; stroke: #000000; stroke-width: 4"/>
    <path d="M 430.203914 584.794972 
L 399.394497 869.651258 
" clip-path="url(#p9a98e20a60)" style="fill: none; stroke: #000000"/>
    <path d="M 452.010211 584.794972 
L 428.942802 347.663562 
" clip-path="url(#p9a98e20a60)" style="fill: none; stroke: #000000; stroke-width: 3"/>
    <path d="M 473.816509 584.794972 
L 751.915355 599.847463 
" clip-path="url(#p9a98e20a60)" style="fill: none; stroke: #000000; stroke-width: 4"/>
    <path d="M 751.915355 599.847463 
L 931.74876 584.794972 
" clip-path="url(#p9a98e20a60)" style="fill: none; stroke: #000000; stroke-width: 4"/>
    <path d="M 751.915355 599.847463 
L 975.361355 584.794972 
" clip-path="url(#p9a98e20a60)" style="fill: none; stroke: #000000; stroke-width: 5"/>
    <path d="M 495.622807 584.794972 
L 1324.262118 584.794972 
" clip-path="url(#p9a98e20a60)" style="fill: none; stroke: #000000; stroke-width: 2"/>
    <path d="M 1324.262118 584.794972 
L 1237.036928 584.794972 
" clip-path="url(#p9a98e20a60)" style="fill: none; stroke: #000000; stroke-width: 2"/>
    <path d="M 1324.262118 584.794972 
L 1344.629062 283.695251 
" clip-path="url(#p9a98e20a60)" style="fill: none; stroke: #000000; stroke-width: 2"/>
    <path d="M 561.0417 584.794972 
L 536.361007 370.440703 
" clip-path="url(#p9a98e20a60)" style="fill: none; stroke: #000000; stroke-width: 3"/>
    <path d="M 561.0417 584.794972 
L 844.523569 584.794972 
" clip-path="url(#p9a98e20a60)" style="fill: none; stroke: #000000; stroke-width: 3"/>
    <path d="M 561.0417 584.794972 
L 529.995371 724.139329 
" clip-path="url(#p9a98e20a60)" style="fill: none; stroke: #000000; stroke-width: 3"/>
    <path d="M 844.523569 584.794972 
L 839.405162 905.603154 
" clip-path="url(#p9a98e20a60)" style="fill: none; stroke: #000000; stroke-width: 4"/>
    <path d="M 582.847997 584.794972 
L 691.879486 584.794972 
" clip-path="url(#p9a98e20a60)" style="fill: none; stroke: #000000; stroke-width: 2"/>
    <path d="M 691.879486 584.794972 
L 678.003878 274.080356 
" clip-path="url(#p9a98e20a60)" style="fill: none; stroke: #000000; stroke-width: 3"/>
    <path d="M 604.654295 584.794972 
L 574.83102 862.276423 
" clip-path="url(#p9a98e20a60)" style="fill: none; stroke: #000000; stroke-width: 2"/>
    <path d="M 626.460593 584.794972 
L 605.453509 851.628916 
" clip-path="url(#p9a98e20a60)" style="fill: none; stroke: #000000; stroke-width: 5"/>
    <path d="M 648.26689 584.794972 
L 634.912123 899.546084 
" clip-path="url(#p9a98e20a60)" style="fill: none; stroke: #000000; stroke-width: 2"/>
    <path d="M 670.073188 584.794972 
L 1302.455821 584.794972 
" clip-path="url(#p9a98e20a60)" style="fill: none; stroke: #000000; stroke-width: 2"/>
    <path d="M 1302.455821 584.794972 
L 1149.811737 584.794972 
" clip-path="url(#p9a98e20a60)" style="fill: none; stroke: #000000; stroke-width: 2"/>
    <path d="M 1302.455821 584.794972 
L 1321.602704 933.865078 
" clip-path="url(#p9a98e20a60)" style="fill: none; stroke: #000000; stroke-width: 2"/>
    <path d="M 713.685783 584.794972 
L 701.971069 906.17641 
" clip-path="url(#p9a98e20a60)" style="fill: none; stroke: #000000"/>
    <path d="M 757.298379 584.794972 
L 822.717272 584.794972 
" clip-path="url(#p9a98e20a60)" style="fill: none; stroke: #000000; stroke-width: 3"/>
    <path d="M 757.298379 584.794972 
L 742.609316 261.109861 
" clip-path="url(#p9a98e20a60)" style="fill: none; stroke: #000000; stroke-width: 3"/>
    <path d="M 822.717272 584.794972 
L 931.459053 651.000494 
" clip-path="url(#p9a98e20a60)" style="fill: none; stroke: #000000; stroke-width: 2"/>
    <path d="M 779.104676 584.794972 
L 771.706876 928.489112 
" clip-path="url(#p9a98e20a60)" style="fill: none; stroke: #000000; stroke-width: 5"/>
    <path d="M 800.910974 584.794972 
L 797.689632 270.076074 
" clip-path="url(#p9a98e20a60)" style="fill: none; stroke: #000000; stroke-width: 3"/>
    <path d="M 931.459053 651.000494 
L 1040.780248 584.794972 
" clip-path="url(#p9a98e20a60)" style="fill: none; stroke: #000000; stroke-width: 2"/>
    <path d="M 888.136165 584.794972 
L 885.316501 877.221798 
" clip-path="url(#p9a98e20a60)" style="fill: none; stroke: #000000; stroke-width: 3"/>
    <path d="M 888.136165 584.794972 
L 881.814213 275.270893 
" clip-path="url(#p9a98e20a60)" style="fill: none; stroke: #000000; stroke-width: 2"/>
    <path d="M 931.74876 584.794972 
L 927.607605 287.183973 
" clip-path="url(#p9a98e20a60)" style="fill: none; stroke: #000000; stroke-width: 4"/>
    <path d="M 975.361355 584.794972 
L 969.262563 276.291732 
" clip-path="url(#p9a98e20a60)" style="fill: none; stroke: #000000; stroke-width: 7"/>
    <path d="M 997.167653 584.794972 
L 993.572673 914.629544 
" clip-path="url(#p9a98e20a60)" style="fill: none; stroke: #000000; stroke-width: 4"/>
    <path d="M 1018.973951 584.794972 
L 1018.558601 219.296729 
" clip-path="url(#p9a98e20a60)" style="fill: none; stroke: #000000; stroke-width: 2"/>
    <path d="M 1062.586546 584.794972 
L 1059.597582 926.719014 
" clip-path="url(#p9a98e20a60)" style="fill: none; stroke: #000000"/>
    <path d="M 1084.392844 584.794972 
L 1086.313174 946.10728 
" clip-path="url(#p9a98e20a60)" style="fill: none; stroke: #000000; stroke-width: 2"/>
    <path d="M 1106.199141 584.794972 
L 1119.160522 948.305455 
" clip-path="url(#p9a98e20a60)" style="fill: none; stroke: #000000"/>
    <path d="M 1128.005439 584.794972 
L 1131.432818 257.682651 
" clip-path="url(#p9a98e20a60)" style="fill: none; stroke: #000000; stroke-width: 3"/>
    <path d="M 1171.618034 584.794972 
L 1182.683164 215.214545 
" clip-path="url(#p9a98e20a60)" style="fill: none; stroke: #000000; stroke-width: 3"/>
    <path d="M 1193.424332 584.794972 
L 1200.668047 904.435006 
" clip-path="url(#p9a98e20a60)" style="fill: none; stroke: #000000; stroke-width: 3"/>
    <path d="M 1215.23063 584.794972 
L 1234.22721 906.765675 
" clip-path="url(#p9a98e20a60)" style="fill: none; stroke: #000000"/>
    <path d="M 1258.843225 584.794972 
L 1270.287293 216.893216 
" clip-path="url(#p9a98e20a60)" style="fill: none; stroke: #000000"/>
    <path d="M 1280.649523 584.794972 
L 1301.018753 238.603984 
" clip-path="url(#p9a98e20a60)" style="fill: none; stroke: #000000"/>
    <path d="M 1346.068416 584.794972 
L 1376.002831 274.208014 
" clip-path="url(#p9a98e20a60)" style="fill: none; stroke: #000000; stroke-width: 2"/>
    <path d="M 1367.874714 584.794972 
L 1390.238172 874.718342 
" clip-path="url(#p9a98e20a60)" style="fill: none; stroke: #000000; stroke-width: 3"/>
    <path d="M 1389.681011 584.794972 
L 1422.325286 840.390242 
" clip-path="url(#p9a98e20a60)" style="fill: none; stroke: #000000"/>
    <path d="M 1411.487309 584.794972 
L 1442.896372 320.381037 
" clip-path="url(#p9a98e20a60)" style="fill: none; stroke: #000000; stroke-width: 4"/>
    <path d="M 1433.293607 584.794972 
L 1477.957527 643.111098 
" clip-path="url(#p9a98e20a60)" style="fill: none; stroke: #000000; stroke-width: 3"/>
    <path d="M 1455.099904 584.794972 
L 1498.946281 609.779941 
" clip-path="url(#p9a98e20a60)" style="fill: none; stroke: #000000; stroke-width: 3"/>
   </g>
   <g id="PathCollection_1">
    <defs>
     <path id="m4904f0e004" d="M 0 11.18034 
C 2.965061 11.18034 5.80908 10.002309 7.905694 7.905694 
C 10.002309 5.80908 11.18034 2.965061 11.18034 0 
C 11.18034 -2.965061 10.002309 -5.80908 7.905694 -7.905694 
C 5.80908 -10.002309 2.965061 -11.18034 0 -11.18034 
C -2.965061 -11.18034 -5.80908 -10.002309 -7.905694 -7.905694 
C -10.002309 -5.80908 -11.18034 -2.965061 -11.18034 0 
C -11.18034 2.965061 -10.002309 5.80908 -7.905694 7.905694 
C -5.80908 10.002309 -2.965061 11.18034 0 11.18034 
z
" style="stroke: #000000"/>
    </defs>
    <g clip-path="url(#p9a98e20a60)">
     <use xlink:href="#m4904f0e004" x="386.591318" y="584.794972" style="fill: #a0cbe2; stroke: #000000"/>
     <use xlink:href="#m4904f0e004" x="346.053719" y="604.310646" style="fill: #a0cbe2; stroke: #000000"/>
     <use xlink:href="#m4904f0e004" x="408.397616" y="584.794972" style="fill: #a0cbe2; stroke: #000000"/>
     <use xlink:href="#m4904f0e004" x="372.419169" y="483.190914" style="fill: #a0cbe2; stroke: #000000"/>
     <use xlink:href="#m4904f0e004" x="430.203914" y="584.794972" style="fill: #a0cbe2; stroke: #000000"/>
     <use xlink:href="#m4904f0e004" x="399.394497" y="869.651258" style="fill: #a0cbe2; stroke: #000000"/>
     <use xlink:href="#m4904f0e004" x="452.010211" y="584.794972" style="fill: #a0cbe2; stroke: #000000"/>
     <use xlink:href="#m4904f0e004" x="428.942802" y="347.663562" style="fill: #a0cbe2; stroke: #000000"/>
     <use xlink:href="#m4904f0e004" x="473.816509" y="584.794972" style="fill: #a0cbe2; stroke: #000000"/>
     <use xlink:href="#m4904f0e004" x="751.915355" y="599.847463" style="fill: #a0cbe2; stroke: #000000"/>
     <use xlink:href="#m4904f0e004" x="495.622807" y="584.794972" style="fill: #a0cbe2; stroke: #000000"/>
     <use xlink:href="#m4904f0e004" x="1324.262118" y="584.794972" style="fill: #a0cbe2; stroke: #000000"/>
     <use xlink:href="#m4904f0e004" x="561.0417" y="584.794972" style="fill: #a0cbe2; stroke: #000000"/>
     <use xlink:href="#m4904f0e004" x="536.361007" y="370.440703" style="fill: #a0cbe2; stroke: #000000"/>
     <use xlink:href="#m4904f0e004" x="844.523569" y="584.794972" style="fill: #a0cbe2; stroke: #000000"/>
     <use xlink:href="#m4904f0e004" x="529.995371" y="724.139329" style="fill: #a0cbe2; stroke: #000000"/>
     <use xlink:href="#m4904f0e004" x="582.847997" y="584.794972" style="fill: #a0cbe2; stroke: #000000"/>
     <use xlink:href="#m4904f0e004" x="691.879486" y="584.794972" style="fill: #a0cbe2; stroke: #000000"/>
     <use xlink:href="#m4904f0e004" x="604.654295" y="584.794972" style="fill: #a0cbe2; stroke: #000000"/>
     <use xlink:href="#m4904f0e004" x="574.83102" y="862.276423" style="fill: #a0cbe2; stroke: #000000"/>
     <use xlink:href="#m4904f0e004" x="626.460593" y="584.794972" style="fill: #a0cbe2; stroke: #000000"/>
     <use xlink:href="#m4904f0e004" x="605.453509" y="851.628916" style="fill: #a0cbe2; stroke: #000000"/>
     <use xlink:href="#m4904f0e004" x="648.26689" y="584.794972" style="fill: #a0cbe2; stroke: #000000"/>
     <use xlink:href="#m4904f0e004" x="634.912123" y="899.546084" style="fill: #a0cbe2; stroke: #000000"/>
     <use xlink:href="#m4904f0e004" x="670.073188" y="584.794972" style="fill: #a0cbe2; stroke: #000000"/>
     <use xlink:href="#m4904f0e004" x="1302.455821" y="584.794972" style="fill: #a0cbe2; stroke: #000000"/>
     <use xlink:href="#m4904f0e004" x="678.003878" y="274.080356" style="fill: #a0cbe2; stroke: #000000"/>
     <use xlink:href="#m4904f0e004" x="713.685783" y="584.794972" style="fill: #a0cbe2; stroke: #000000"/>
     <use xlink:href="#m4904f0e004" x="701.971069" y="906.17641" style="fill: #a0cbe2; stroke: #000000"/>
     <use xlink:href="#m4904f0e004" x="757.298379" y="584.794972" style="fill: #a0cbe2; stroke: #000000"/>
     <use xlink:href="#m4904f0e004" x="822.717272" y="584.794972" style="fill: #a0cbe2; stroke: #000000"/>
     <use xlink:href="#m4904f0e004" x="742.609316" y="261.109861" style="fill: #a0cbe2; stroke: #000000"/>
     <use xlink:href="#m4904f0e004" x="779.104676" y="584.794972" style="fill: #a0cbe2; stroke: #000000"/>
     <use xlink:href="#m4904f0e004" x="771.706876" y="928.489112" style="fill: #a0cbe2; stroke: #000000"/>
     <use xlink:href="#m4904f0e004" x="800.910974" y="584.794972" style="fill: #a0cbe2; stroke: #000000"/>
     <use xlink:href="#m4904f0e004" x="797.689632" y="270.076074" style="fill: #a0cbe2; stroke: #000000"/>
     <use xlink:href="#m4904f0e004" x="931.459053" y="651.000494" style="fill: #a0cbe2; stroke: #000000"/>
     <use xlink:href="#m4904f0e004" x="839.405162" y="905.603154" style="fill: #a0cbe2; stroke: #000000"/>
     <use xlink:href="#m4904f0e004" x="888.136165" y="584.794972" style="fill: #a0cbe2; stroke: #000000"/>
     <use xlink:href="#m4904f0e004" x="885.316501" y="877.221798" style="fill: #a0cbe2; stroke: #000000"/>
     <use xlink:href="#m4904f0e004" x="881.814213" y="275.270893" style="fill: #a0cbe2; stroke: #000000"/>
     <use xlink:href="#m4904f0e004" x="931.74876" y="584.794972" style="fill: #a0cbe2; stroke: #000000"/>
     <use xlink:href="#m4904f0e004" x="927.607605" y="287.183973" style="fill: #a0cbe2; stroke: #000000"/>
     <use xlink:href="#m4904f0e004" x="975.361355" y="584.794972" style="fill: #a0cbe2; stroke: #000000"/>
     <use xlink:href="#m4904f0e004" x="969.262563" y="276.291732" style="fill: #a0cbe2; stroke: #000000"/>
     <use xlink:href="#m4904f0e004" x="997.167653" y="584.794972" style="fill: #a0cbe2; stroke: #000000"/>
     <use xlink:href="#m4904f0e004" x="993.572673" y="914.629544" style="fill: #a0cbe2; stroke: #000000"/>
     <use xlink:href="#m4904f0e004" x="1018.973951" y="584.794972" style="fill: #a0cbe2; stroke: #000000"/>
     <use xlink:href="#m4904f0e004" x="1018.558601" y="219.296729" style="fill: #a0cbe2; stroke: #000000"/>
     <use xlink:href="#m4904f0e004" x="1040.780248" y="584.794972" style="fill: #a0cbe2; stroke: #000000"/>
     <use xlink:href="#m4904f0e004" x="1062.586546" y="584.794972" style="fill: #a0cbe2; stroke: #000000"/>
     <use xlink:href="#m4904f0e004" x="1059.597582" y="926.719014" style="fill: #a0cbe2; stroke: #000000"/>
     <use xlink:href="#m4904f0e004" x="1084.392844" y="584.794972" style="fill: #a0cbe2; stroke: #000000"/>
     <use xlink:href="#m4904f0e004" x="1086.313174" y="946.10728" style="fill: #a0cbe2; stroke: #000000"/>
     <use xlink:href="#m4904f0e004" x="1106.199141" y="584.794972" style="fill: #a0cbe2; stroke: #000000"/>
     <use xlink:href="#m4904f0e004" x="1119.160522" y="948.305455" style="fill: #a0cbe2; stroke: #000000"/>
     <use xlink:href="#m4904f0e004" x="1128.005439" y="584.794972" style="fill: #a0cbe2; stroke: #000000"/>
     <use xlink:href="#m4904f0e004" x="1131.432818" y="257.682651" style="fill: #a0cbe2; stroke: #000000"/>
     <use xlink:href="#m4904f0e004" x="1149.811737" y="584.794972" style="fill: #a0cbe2; stroke: #000000"/>
     <use xlink:href="#m4904f0e004" x="1171.618034" y="584.794972" style="fill: #a0cbe2; stroke: #000000"/>
     <use xlink:href="#m4904f0e004" x="1182.683164" y="215.214545" style="fill: #a0cbe2; stroke: #000000"/>
     <use xlink:href="#m4904f0e004" x="1193.424332" y="584.794972" style="fill: #a0cbe2; stroke: #000000"/>
     <use xlink:href="#m4904f0e004" x="1200.668047" y="904.435006" style="fill: #a0cbe2; stroke: #000000"/>
     <use xlink:href="#m4904f0e004" x="1215.23063" y="584.794972" style="fill: #a0cbe2; stroke: #000000"/>
     <use xlink:href="#m4904f0e004" x="1234.22721" y="906.765675" style="fill: #a0cbe2; stroke: #000000"/>
     <use xlink:href="#m4904f0e004" x="1237.036928" y="584.794972" style="fill: #a0cbe2; stroke: #000000"/>
     <use xlink:href="#m4904f0e004" x="1258.843225" y="584.794972" style="fill: #a0cbe2; stroke: #000000"/>
     <use xlink:href="#m4904f0e004" x="1270.287293" y="216.893216" style="fill: #a0cbe2; stroke: #000000"/>
     <use xlink:href="#m4904f0e004" x="1280.649523" y="584.794972" style="fill: #a0cbe2; stroke: #000000"/>
     <use xlink:href="#m4904f0e004" x="1301.018753" y="238.603984" style="fill: #a0cbe2; stroke: #000000"/>
     <use xlink:href="#m4904f0e004" x="1321.602704" y="933.865078" style="fill: #a0cbe2; stroke: #000000"/>
     <use xlink:href="#m4904f0e004" x="1344.629062" y="283.695251" style="fill: #a0cbe2; stroke: #000000"/>
     <use xlink:href="#m4904f0e004" x="1346.068416" y="584.794972" style="fill: #a0cbe2; stroke: #000000"/>
     <use xlink:href="#m4904f0e004" x="1376.002831" y="274.208014" style="fill: #a0cbe2; stroke: #000000"/>
     <use xlink:href="#m4904f0e004" x="1367.874714" y="584.794972" style="fill: #a0cbe2; stroke: #000000"/>
     <use xlink:href="#m4904f0e004" x="1390.238172" y="874.718342" style="fill: #a0cbe2; stroke: #000000"/>
     <use xlink:href="#m4904f0e004" x="1389.681011" y="584.794972" style="fill: #a0cbe2; stroke: #000000"/>
     <use xlink:href="#m4904f0e004" x="1422.325286" y="840.390242" style="fill: #a0cbe2; stroke: #000000"/>
     <use xlink:href="#m4904f0e004" x="1411.487309" y="584.794972" style="fill: #a0cbe2; stroke: #000000"/>
     <use xlink:href="#m4904f0e004" x="1442.896372" y="320.381037" style="fill: #a0cbe2; stroke: #000000"/>
     <use xlink:href="#m4904f0e004" x="1433.293607" y="584.794972" style="fill: #a0cbe2; stroke: #000000"/>
     <use xlink:href="#m4904f0e004" x="1477.957527" y="643.111098" style="fill: #a0cbe2; stroke: #000000"/>
     <use xlink:href="#m4904f0e004" x="1455.099904" y="584.794972" style="fill: #a0cbe2; stroke: #000000"/>
     <use xlink:href="#m4904f0e004" x="1498.946281" y="609.779941" style="fill: #a0cbe2; stroke: #000000"/>
    </g>
   </g>
   <g id="text_1">
    <g clip-path="url(#p9a98e20a60)">
     <!-- 1 -->
     <g transform="translate(383.728193 587.27841) scale(0.09 -0.09)">
      <defs>
       <path id="DejaVuSans-31" d="M 794 531 
L 1825 531 
L 1825 4091 
L 703 3866 
L 703 4441 
L 1819 4666 
L 2450 4666 
L 2450 531 
L 3481 531 
L 3481 0 
L 794 0 
L 794 531 
z
" transform="scale(0.015625)"/>
      </defs>
      <use xlink:href="#DejaVuSans-31"/>
     </g>
    </g>
   </g>
   <g id="text_2">
    <g clip-path="url(#p9a98e20a60)">
     <!-- 33 -->
     <g transform="translate(340.327469 606.794083) scale(0.09 -0.09)">
      <defs>
       <path id="DejaVuSans-33" d="M 2597 2516 
Q 3050 2419 3304 2112 
Q 3559 1806 3559 1356 
Q 3559 666 3084 287 
Q 2609 -91 1734 -91 
Q 1441 -91 1130 -33 
Q 819 25 488 141 
L 488 750 
Q 750 597 1062 519 
Q 1375 441 1716 441 
Q 2309 441 2620 675 
Q 2931 909 2931 1356 
Q 2931 1769 2642 2001 
Q 2353 2234 1838 2234 
L 1294 2234 
L 1294 2753 
L 1863 2753 
Q 2328 2753 2575 2939 
Q 2822 3125 2822 3475 
Q 2822 3834 2567 4026 
Q 2313 4219 1838 4219 
Q 1578 4219 1281 4162 
Q 984 4106 628 3988 
L 628 4550 
Q 988 4650 1302 4700 
Q 1616 4750 1894 4750 
Q 2613 4750 3031 4423 
Q 3450 4097 3450 3541 
Q 3450 3153 3228 2886 
Q 3006 2619 2597 2516 
z
" transform="scale(0.015625)"/>
      </defs>
      <use xlink:href="#DejaVuSans-33"/>
      <use xlink:href="#DejaVuSans-33" x="63.623047"/>
     </g>
    </g>
   </g>
   <g id="text_3">
    <g clip-path="url(#p9a98e20a60)">
     <!-- 10 -->
     <g transform="translate(402.671366 587.27841) scale(0.09 -0.09)">
      <defs>
       <path id="DejaVuSans-30" d="M 2034 4250 
Q 1547 4250 1301 3770 
Q 1056 3291 1056 2328 
Q 1056 1369 1301 889 
Q 1547 409 2034 409 
Q 2525 409 2770 889 
Q 3016 1369 3016 2328 
Q 3016 3291 2770 3770 
Q 2525 4250 2034 4250 
z
M 2034 4750 
Q 2819 4750 3233 4129 
Q 3647 3509 3647 2328 
Q 3647 1150 3233 529 
Q 2819 -91 2034 -91 
Q 1250 -91 836 529 
Q 422 1150 422 2328 
Q 422 3509 836 4129 
Q 1250 4750 2034 4750 
z
" transform="scale(0.015625)"/>
      </defs>
      <use xlink:href="#DejaVuSans-31"/>
      <use xlink:href="#DejaVuSans-30" x="63.623047"/>
     </g>
    </g>
   </g>
   <g id="text_4">
    <g clip-path="url(#p9a98e20a60)">
     <!-- 295 -->
     <g transform="translate(363.829794 485.674352) scale(0.09 -0.09)">
      <defs>
       <path id="DejaVuSans-32" d="M 1228 531 
L 3431 531 
L 3431 0 
L 469 0 
L 469 531 
Q 828 903 1448 1529 
Q 2069 2156 2228 2338 
Q 2531 2678 2651 2914 
Q 2772 3150 2772 3378 
Q 2772 3750 2511 3984 
Q 2250 4219 1831 4219 
Q 1534 4219 1204 4116 
Q 875 4013 500 3803 
L 500 4441 
Q 881 4594 1212 4672 
Q 1544 4750 1819 4750 
Q 2544 4750 2975 4387 
Q 3406 4025 3406 3419 
Q 3406 3131 3298 2873 
Q 3191 2616 2906 2266 
Q 2828 2175 2409 1742 
Q 1991 1309 1228 531 
z
" transform="scale(0.015625)"/>
       <path id="DejaVuSans-39" d="M 703 97 
L 703 672 
Q 941 559 1184 500 
Q 1428 441 1663 441 
Q 2288 441 2617 861 
Q 2947 1281 2994 2138 
Q 2813 1869 2534 1725 
Q 2256 1581 1919 1581 
Q 1219 1581 811 2004 
Q 403 2428 403 3163 
Q 403 3881 828 4315 
Q 1253 4750 1959 4750 
Q 2769 4750 3195 4129 
Q 3622 3509 3622 2328 
Q 3622 1225 3098 567 
Q 2575 -91 1691 -91 
Q 1453 -91 1209 -44 
Q 966 3 703 97 
z
M 1959 2075 
Q 2384 2075 2632 2365 
Q 2881 2656 2881 3163 
Q 2881 3666 2632 3958 
Q 2384 4250 1959 4250 
Q 1534 4250 1286 3958 
Q 1038 3666 1038 3163 
Q 1038 2656 1286 2365 
Q 1534 2075 1959 2075 
z
" transform="scale(0.015625)"/>
       <path id="DejaVuSans-35" d="M 691 4666 
L 3169 4666 
L 3169 4134 
L 1269 4134 
L 1269 2991 
Q 1406 3038 1543 3061 
Q 1681 3084 1819 3084 
Q 2600 3084 3056 2656 
Q 3513 2228 3513 1497 
Q 3513 744 3044 326 
Q 2575 -91 1722 -91 
Q 1428 -91 1123 -41 
Q 819 9 494 109 
L 494 744 
Q 775 591 1075 516 
Q 1375 441 1709 441 
Q 2250 441 2565 725 
Q 2881 1009 2881 1497 
Q 2881 1984 2565 2268 
Q 2250 2553 1709 2553 
Q 1456 2553 1204 2497 
Q 953 2441 691 2322 
L 691 4666 
z
" transform="scale(0.015625)"/>
      </defs>
      <use xlink:href="#DejaVuSans-32"/>
      <use xlink:href="#DejaVuSans-39" x="63.623047"/>
      <use xlink:href="#DejaVuSans-35" x="127.246094"/>
     </g>
    </g>
   </g>
   <g id="text_5">
    <g clip-path="url(#p9a98e20a60)">
     <!-- 11 -->
     <g transform="translate(424.477664 587.27841) scale(0.09 -0.09)">
      <use xlink:href="#DejaVuSans-31"/>
      <use xlink:href="#DejaVuSans-31" x="63.623047"/>
     </g>
    </g>
   </g>
   <g id="text_6">
    <g clip-path="url(#p9a98e20a60)">
     <!-- 93 -->
     <g transform="translate(393.668247 872.134696) scale(0.09 -0.09)">
      <use xlink:href="#DejaVuSans-39"/>
      <use xlink:href="#DejaVuSans-33" x="63.623047"/>
     </g>
    </g>
   </g>
   <g id="text_7">
    <g clip-path="url(#p9a98e20a60)">
     <!-- 28 -->
     <g transform="translate(446.283961 587.27841) scale(0.09 -0.09)">
      <defs>
       <path id="DejaVuSans-38" d="M 2034 2216 
Q 1584 2216 1326 1975 
Q 1069 1734 1069 1313 
Q 1069 891 1326 650 
Q 1584 409 2034 409 
Q 2484 409 2743 651 
Q 3003 894 3003 1313 
Q 3003 1734 2745 1975 
Q 2488 2216 2034 2216 
z
M 1403 2484 
Q 997 2584 770 2862 
Q 544 3141 544 3541 
Q 544 4100 942 4425 
Q 1341 4750 2034 4750 
Q 2731 4750 3128 4425 
Q 3525 4100 3525 3541 
Q 3525 3141 3298 2862 
Q 3072 2584 2669 2484 
Q 3125 2378 3379 2068 
Q 3634 1759 3634 1313 
Q 3634 634 3220 271 
Q 2806 -91 2034 -91 
Q 1263 -91 848 271 
Q 434 634 434 1313 
Q 434 1759 690 2068 
Q 947 2378 1403 2484 
z
M 1172 3481 
Q 1172 3119 1398 2916 
Q 1625 2713 2034 2713 
Q 2441 2713 2670 2916 
Q 2900 3119 2900 3481 
Q 2900 3844 2670 4047 
Q 2441 4250 2034 4250 
Q 1625 4250 1398 4047 
Q 1172 3844 1172 3481 
z
" transform="scale(0.015625)"/>
      </defs>
      <use xlink:href="#DejaVuSans-32"/>
      <use xlink:href="#DejaVuSans-38" x="63.623047"/>
     </g>
    </g>
   </g>
   <g id="text_8">
    <g clip-path="url(#p9a98e20a60)">
     <!-- 84 -->
     <g transform="translate(423.216552 350.147) scale(0.09 -0.09)">
      <defs>
       <path id="DejaVuSans-34" d="M 2419 4116 
L 825 1625 
L 2419 1625 
L 2419 4116 
z
M 2253 4666 
L 3047 4666 
L 3047 1625 
L 3713 1625 
L 3713 1100 
L 3047 1100 
L 3047 0 
L 2419 0 
L 2419 1100 
L 313 1100 
L 313 1709 
L 2253 4666 
z
" transform="scale(0.015625)"/>
      </defs>
      <use xlink:href="#DejaVuSans-38"/>
      <use xlink:href="#DejaVuSans-34" x="63.623047"/>
     </g>
    </g>
   </g>
   <g id="text_9">
    <g clip-path="url(#p9a98e20a60)">
     <!-- 30 -->
     <g transform="translate(468.090259 587.27841) scale(0.09 -0.09)">
      <use xlink:href="#DejaVuSans-33"/>
      <use xlink:href="#DejaVuSans-30" x="63.623047"/>
     </g>
    </g>
   </g>
   <g id="text_10">
    <g clip-path="url(#p9a98e20a60)">
     <!-- 164 -->
     <g transform="translate(743.32598 602.3309) scale(0.09 -0.09)">
      <defs>
       <path id="DejaVuSans-36" d="M 2113 2584 
Q 1688 2584 1439 2293 
Q 1191 2003 1191 1497 
Q 1191 994 1439 701 
Q 1688 409 2113 409 
Q 2538 409 2786 701 
Q 3034 994 3034 1497 
Q 3034 2003 2786 2293 
Q 2538 2584 2113 2584 
z
M 3366 4563 
L 3366 3988 
Q 3128 4100 2886 4159 
Q 2644 4219 2406 4219 
Q 1781 4219 1451 3797 
Q 1122 3375 1075 2522 
Q 1259 2794 1537 2939 
Q 1816 3084 2150 3084 
Q 2853 3084 3261 2657 
Q 3669 2231 3669 1497 
Q 3669 778 3244 343 
Q 2819 -91 2113 -91 
Q 1303 -91 875 529 
Q 447 1150 447 2328 
Q 447 3434 972 4092 
Q 1497 4750 2381 4750 
Q 2619 4750 2861 4703 
Q 3103 4656 3366 4563 
z
" transform="scale(0.015625)"/>
      </defs>
      <use xlink:href="#DejaVuSans-31"/>
      <use xlink:href="#DejaVuSans-36" x="63.623047"/>
      <use xlink:href="#DejaVuSans-34" x="127.246094"/>
     </g>
    </g>
   </g>
   <g id="text_11">
    <g clip-path="url(#p9a98e20a60)">
     <!-- 47 -->
     <g transform="translate(489.896557 587.27841) scale(0.09 -0.09)">
      <defs>
       <path id="DejaVuSans-37" d="M 525 4666 
L 3525 4666 
L 3525 4397 
L 1831 0 
L 1172 0 
L 2766 4134 
L 525 4134 
L 525 4666 
z
" transform="scale(0.015625)"/>
      </defs>
      <use xlink:href="#DejaVuSans-34"/>
      <use xlink:href="#DejaVuSans-37" x="63.623047"/>
     </g>
    </g>
   </g>
   <g id="text_12">
    <g clip-path="url(#p9a98e20a60)">
     <!-- 297 -->
     <g transform="translate(1315.672743 587.27841) scale(0.09 -0.09)">
      <use xlink:href="#DejaVuSans-32"/>
      <use xlink:href="#DejaVuSans-39" x="63.623047"/>
      <use xlink:href="#DejaVuSans-37" x="127.246094"/>
     </g>
    </g>
   </g>
   <g id="text_13">
    <g clip-path="url(#p9a98e20a60)">
     <!-- 48 -->
     <g transform="translate(555.31545 587.27841) scale(0.09 -0.09)">
      <use xlink:href="#DejaVuSans-34"/>
      <use xlink:href="#DejaVuSans-38" x="63.623047"/>
     </g>
    </g>
   </g>
   <g id="text_14">
    <g clip-path="url(#p9a98e20a60)">
     <!-- 55 -->
     <g transform="translate(530.634757 372.92414) scale(0.09 -0.09)">
      <use xlink:href="#DejaVuSans-35"/>
      <use xlink:href="#DejaVuSans-35" x="63.623047"/>
     </g>
    </g>
   </g>
   <g id="text_15">
    <g clip-path="url(#p9a98e20a60)">
     <!-- 76 -->
     <g transform="translate(838.797319 587.27841) scale(0.09 -0.09)">
      <use xlink:href="#DejaVuSans-37"/>
      <use xlink:href="#DejaVuSans-36" x="63.623047"/>
     </g>
    </g>
   </g>
   <g id="text_16">
    <g clip-path="url(#p9a98e20a60)">
     <!-- 517 -->
     <g transform="translate(521.405996 726.622767) scale(0.09 -0.09)">
      <use xlink:href="#DejaVuSans-35"/>
      <use xlink:href="#DejaVuSans-31" x="63.623047"/>
      <use xlink:href="#DejaVuSans-37" x="127.246094"/>
     </g>
    </g>
   </g>
   <g id="text_17">
    <g clip-path="url(#p9a98e20a60)">
     <!-- 54 -->
     <g transform="translate(577.121747 587.27841) scale(0.09 -0.09)">
      <use xlink:href="#DejaVuSans-35"/>
      <use xlink:href="#DejaVuSans-34" x="63.623047"/>
     </g>
    </g>
   </g>
   <g id="text_18">
    <g clip-path="url(#p9a98e20a60)">
     <!-- 63 -->
     <g transform="translate(686.153236 587.27841) scale(0.09 -0.09)">
      <use xlink:href="#DejaVuSans-36"/>
      <use xlink:href="#DejaVuSans-33" x="63.623047"/>
     </g>
    </g>
   </g>
   <g id="text_19">
    <g clip-path="url(#p9a98e20a60)">
     <!-- 57 -->
     <g transform="translate(598.928045 587.27841) scale(0.09 -0.09)">
      <use xlink:href="#DejaVuSans-35"/>
      <use xlink:href="#DejaVuSans-37" x="63.623047"/>
     </g>
    </g>
   </g>
   <g id="text_20">
    <g clip-path="url(#p9a98e20a60)">
     <!-- 520 -->
     <g transform="translate(566.241645 864.75986) scale(0.09 -0.09)">
      <use xlink:href="#DejaVuSans-35"/>
      <use xlink:href="#DejaVuSans-32" x="63.623047"/>
      <use xlink:href="#DejaVuSans-30" x="127.246094"/>
     </g>
    </g>
   </g>
   <g id="text_21">
    <g clip-path="url(#p9a98e20a60)">
     <!-- 59 -->
     <g transform="translate(620.734343 587.27841) scale(0.09 -0.09)">
      <use xlink:href="#DejaVuSans-35"/>
      <use xlink:href="#DejaVuSans-39" x="63.623047"/>
     </g>
    </g>
   </g>
   <g id="text_22">
    <g clip-path="url(#p9a98e20a60)">
     <!-- 163 -->
     <g transform="translate(596.864134 854.112354) scale(0.09 -0.09)">
      <use xlink:href="#DejaVuSans-31"/>
      <use xlink:href="#DejaVuSans-36" x="63.623047"/>
      <use xlink:href="#DejaVuSans-33" x="127.246094"/>
     </g>
    </g>
   </g>
   <g id="text_23">
    <g clip-path="url(#p9a98e20a60)">
     <!-- 60 -->
     <g transform="translate(642.54064 587.27841) scale(0.09 -0.09)">
      <use xlink:href="#DejaVuSans-36"/>
      <use xlink:href="#DejaVuSans-30" x="63.623047"/>
     </g>
    </g>
   </g>
   <g id="text_24">
    <g clip-path="url(#p9a98e20a60)">
     <!-- 126 -->
     <g transform="translate(626.322748 902.029522) scale(0.09 -0.09)">
      <use xlink:href="#DejaVuSans-31"/>
      <use xlink:href="#DejaVuSans-32" x="63.623047"/>
      <use xlink:href="#DejaVuSans-36" x="127.246094"/>
     </g>
    </g>
   </g>
   <g id="text_25">
    <g clip-path="url(#p9a98e20a60)">
     <!-- 61 -->
     <g transform="translate(664.346938 587.27841) scale(0.09 -0.09)">
      <use xlink:href="#DejaVuSans-36"/>
      <use xlink:href="#DejaVuSans-31" x="63.623047"/>
     </g>
    </g>
   </g>
   <g id="text_26">
    <g clip-path="url(#p9a98e20a60)">
     <!-- 251 -->
     <g transform="translate(1293.866446 587.27841) scale(0.09 -0.09)">
      <use xlink:href="#DejaVuSans-32"/>
      <use xlink:href="#DejaVuSans-35" x="63.623047"/>
      <use xlink:href="#DejaVuSans-31" x="127.246094"/>
     </g>
    </g>
   </g>
   <g id="text_27">
    <g clip-path="url(#p9a98e20a60)">
     <!-- 129 -->
     <g transform="translate(669.414503 276.563793) scale(0.09 -0.09)">
      <use xlink:href="#DejaVuSans-31"/>
      <use xlink:href="#DejaVuSans-32" x="63.623047"/>
      <use xlink:href="#DejaVuSans-39" x="127.246094"/>
     </g>
    </g>
   </g>
   <g id="text_28">
    <g clip-path="url(#p9a98e20a60)">
     <!-- 67 -->
     <g transform="translate(707.959533 587.27841) scale(0.09 -0.09)">
      <use xlink:href="#DejaVuSans-36"/>
      <use xlink:href="#DejaVuSans-37" x="63.623047"/>
     </g>
    </g>
   </g>
   <g id="text_29">
    <g clip-path="url(#p9a98e20a60)">
     <!-- 494 -->
     <g transform="translate(693.381694 908.659848) scale(0.09 -0.09)">
      <use xlink:href="#DejaVuSans-34"/>
      <use xlink:href="#DejaVuSans-39" x="63.623047"/>
      <use xlink:href="#DejaVuSans-34" x="127.246094"/>
     </g>
    </g>
   </g>
   <g id="text_30">
    <g clip-path="url(#p9a98e20a60)">
     <!-- 68 -->
     <g transform="translate(751.572129 587.27841) scale(0.09 -0.09)">
      <use xlink:href="#DejaVuSans-36"/>
      <use xlink:href="#DejaVuSans-38" x="63.623047"/>
     </g>
    </g>
   </g>
   <g id="text_31">
    <g clip-path="url(#p9a98e20a60)">
     <!-- 72 -->
     <g transform="translate(816.991022 587.27841) scale(0.09 -0.09)">
      <use xlink:href="#DejaVuSans-37"/>
      <use xlink:href="#DejaVuSans-32" x="63.623047"/>
     </g>
    </g>
   </g>
   <g id="text_32">
    <g clip-path="url(#p9a98e20a60)">
     <!-- 120 -->
     <g transform="translate(734.019941 263.593298) scale(0.09 -0.09)">
      <use xlink:href="#DejaVuSans-31"/>
      <use xlink:href="#DejaVuSans-32" x="63.623047"/>
      <use xlink:href="#DejaVuSans-30" x="127.246094"/>
     </g>
    </g>
   </g>
   <g id="text_33">
    <g clip-path="url(#p9a98e20a60)">
     <!-- 70 -->
     <g transform="translate(773.378426 587.27841) scale(0.09 -0.09)">
      <use xlink:href="#DejaVuSans-37"/>
      <use xlink:href="#DejaVuSans-30" x="63.623047"/>
     </g>
    </g>
   </g>
   <g id="text_34">
    <g clip-path="url(#p9a98e20a60)">
     <!-- 562 -->
     <g transform="translate(763.117501 930.972549) scale(0.09 -0.09)">
      <use xlink:href="#DejaVuSans-35"/>
      <use xlink:href="#DejaVuSans-36" x="63.623047"/>
      <use xlink:href="#DejaVuSans-32" x="127.246094"/>
     </g>
    </g>
   </g>
   <g id="text_35">
    <g clip-path="url(#p9a98e20a60)">
     <!-- 71 -->
     <g transform="translate(795.184724 587.27841) scale(0.09 -0.09)">
      <use xlink:href="#DejaVuSans-37"/>
      <use xlink:href="#DejaVuSans-31" x="63.623047"/>
     </g>
    </g>
   </g>
   <g id="text_36">
    <g clip-path="url(#p9a98e20a60)">
     <!-- 256 -->
     <g transform="translate(789.100257 272.559512) scale(0.09 -0.09)">
      <use xlink:href="#DejaVuSans-32"/>
      <use xlink:href="#DejaVuSans-35" x="63.623047"/>
      <use xlink:href="#DejaVuSans-36" x="127.246094"/>
     </g>
    </g>
   </g>
   <g id="text_37">
    <g clip-path="url(#p9a98e20a60)">
     <!-- 604 -->
     <g transform="translate(922.869678 653.483932) scale(0.09 -0.09)">
      <use xlink:href="#DejaVuSans-36"/>
      <use xlink:href="#DejaVuSans-30" x="63.623047"/>
      <use xlink:href="#DejaVuSans-34" x="127.246094"/>
     </g>
    </g>
   </g>
   <g id="text_38">
    <g clip-path="url(#p9a98e20a60)">
     <!-- 261 -->
     <g transform="translate(830.815787 908.086591) scale(0.09 -0.09)">
      <use xlink:href="#DejaVuSans-32"/>
      <use xlink:href="#DejaVuSans-36" x="63.623047"/>
      <use xlink:href="#DejaVuSans-31" x="127.246094"/>
     </g>
    </g>
   </g>
   <g id="text_39">
    <g clip-path="url(#p9a98e20a60)">
     <!-- 79 -->
     <g transform="translate(882.409915 587.27841) scale(0.09 -0.09)">
      <use xlink:href="#DejaVuSans-37"/>
      <use xlink:href="#DejaVuSans-39" x="63.623047"/>
     </g>
    </g>
   </g>
   <g id="text_40">
    <g clip-path="url(#p9a98e20a60)">
     <!-- 102 -->
     <g transform="translate(876.727126 879.705236) scale(0.09 -0.09)">
      <use xlink:href="#DejaVuSans-31"/>
      <use xlink:href="#DejaVuSans-30" x="63.623047"/>
      <use xlink:href="#DejaVuSans-32" x="127.246094"/>
     </g>
    </g>
   </g>
   <g id="text_41">
    <g clip-path="url(#p9a98e20a60)">
     <!-- 347 -->
     <g transform="translate(873.224838 277.754331) scale(0.09 -0.09)">
      <use xlink:href="#DejaVuSans-33"/>
      <use xlink:href="#DejaVuSans-34" x="63.623047"/>
      <use xlink:href="#DejaVuSans-37" x="127.246094"/>
     </g>
    </g>
   </g>
   <g id="text_42">
    <g clip-path="url(#p9a98e20a60)">
     <!-- 80 -->
     <g transform="translate(926.02251 587.27841) scale(0.09 -0.09)">
      <use xlink:href="#DejaVuSans-38"/>
      <use xlink:href="#DejaVuSans-30" x="63.623047"/>
     </g>
    </g>
   </g>
   <g id="text_43">
    <g clip-path="url(#p9a98e20a60)">
     <!-- 166 -->
     <g transform="translate(919.01823 289.66741) scale(0.09 -0.09)">
      <use xlink:href="#DejaVuSans-31"/>
      <use xlink:href="#DejaVuSans-36" x="63.623047"/>
      <use xlink:href="#DejaVuSans-36" x="127.246094"/>
     </g>
    </g>
   </g>
   <g id="text_44">
    <g clip-path="url(#p9a98e20a60)">
     <!-- 81 -->
     <g transform="translate(969.635105 587.27841) scale(0.09 -0.09)">
      <use xlink:href="#DejaVuSans-38"/>
      <use xlink:href="#DejaVuSans-31" x="63.623047"/>
     </g>
    </g>
   </g>
   <g id="text_45">
    <g clip-path="url(#p9a98e20a60)">
     <!-- 116 -->
     <g transform="translate(960.673188 278.77517) scale(0.09 -0.09)">
      <use xlink:href="#DejaVuSans-31"/>
      <use xlink:href="#DejaVuSans-31" x="63.623047"/>
      <use xlink:href="#DejaVuSans-36" x="127.246094"/>
     </g>
    </g>
   </g>
   <g id="text_46">
    <g clip-path="url(#p9a98e20a60)">
     <!-- 82 -->
     <g transform="translate(991.441403 587.27841) scale(0.09 -0.09)">
      <use xlink:href="#DejaVuSans-38"/>
      <use xlink:href="#DejaVuSans-32" x="63.623047"/>
     </g>
    </g>
   </g>
   <g id="text_47">
    <g clip-path="url(#p9a98e20a60)">
     <!-- 132 -->
     <g transform="translate(984.983298 917.112982) scale(0.09 -0.09)">
      <use xlink:href="#DejaVuSans-31"/>
      <use xlink:href="#DejaVuSans-33" x="63.623047"/>
      <use xlink:href="#DejaVuSans-32" x="127.246094"/>
     </g>
    </g>
   </g>
   <g id="text_48">
    <g clip-path="url(#p9a98e20a60)">
     <!-- 83 -->
     <g transform="translate(1013.247701 587.27841) scale(0.09 -0.09)">
      <use xlink:href="#DejaVuSans-38"/>
      <use xlink:href="#DejaVuSans-33" x="63.623047"/>
     </g>
    </g>
   </g>
   <g id="text_49">
    <g clip-path="url(#p9a98e20a60)">
     <!-- 113 -->
     <g transform="translate(1009.969226 221.780167) scale(0.09 -0.09)">
      <use xlink:href="#DejaVuSans-31"/>
      <use xlink:href="#DejaVuSans-31" x="63.623047"/>
      <use xlink:href="#DejaVuSans-33" x="127.246094"/>
     </g>
    </g>
   </g>
   <g id="text_50">
    <g clip-path="url(#p9a98e20a60)">
     <!-- 86 -->
     <g transform="translate(1035.053998 587.27841) scale(0.09 -0.09)">
      <use xlink:href="#DejaVuSans-38"/>
      <use xlink:href="#DejaVuSans-36" x="63.623047"/>
     </g>
    </g>
   </g>
   <g id="text_51">
    <g clip-path="url(#p9a98e20a60)">
     <!-- 98 -->
     <g transform="translate(1056.860296 587.27841) scale(0.09 -0.09)">
      <use xlink:href="#DejaVuSans-39"/>
      <use xlink:href="#DejaVuSans-38" x="63.623047"/>
     </g>
    </g>
   </g>
   <g id="text_52">
    <g clip-path="url(#p9a98e20a60)">
     <!-- 501 -->
     <g transform="translate(1051.008207 929.202452) scale(0.09 -0.09)">
      <use xlink:href="#DejaVuSans-35"/>
      <use xlink:href="#DejaVuSans-30" x="63.623047"/>
      <use xlink:href="#DejaVuSans-31" x="127.246094"/>
     </g>
    </g>
   </g>
   <g id="text_53">
    <g clip-path="url(#p9a98e20a60)">
     <!-- 114 -->
     <g transform="translate(1075.803469 587.27841) scale(0.09 -0.09)">
      <use xlink:href="#DejaVuSans-31"/>
      <use xlink:href="#DejaVuSans-31" x="63.623047"/>
      <use xlink:href="#DejaVuSans-34" x="127.246094"/>
     </g>
    </g>
   </g>
   <g id="text_54">
    <g clip-path="url(#p9a98e20a60)">
     <!-- 299 -->
     <g transform="translate(1077.723799 948.590718) scale(0.09 -0.09)">
      <use xlink:href="#DejaVuSans-32"/>
      <use xlink:href="#DejaVuSans-39" x="63.623047"/>
      <use xlink:href="#DejaVuSans-39" x="127.246094"/>
     </g>
    </g>
   </g>
   <g id="text_55">
    <g clip-path="url(#p9a98e20a60)">
     <!-- 115 -->
     <g transform="translate(1097.609766 587.27841) scale(0.09 -0.09)">
      <use xlink:href="#DejaVuSans-31"/>
      <use xlink:href="#DejaVuSans-31" x="63.623047"/>
      <use xlink:href="#DejaVuSans-35" x="127.246094"/>
     </g>
    </g>
   </g>
   <g id="text_56">
    <g clip-path="url(#p9a98e20a60)">
     <!-- 314 -->
     <g transform="translate(1110.571147 950.788892) scale(0.09 -0.09)">
      <use xlink:href="#DejaVuSans-33"/>
      <use xlink:href="#DejaVuSans-31" x="63.623047"/>
      <use xlink:href="#DejaVuSans-34" x="127.246094"/>
     </g>
    </g>
   </g>
   <g id="text_57">
    <g clip-path="url(#p9a98e20a60)">
     <!-- 119 -->
     <g transform="translate(1119.416064 587.27841) scale(0.09 -0.09)">
      <use xlink:href="#DejaVuSans-31"/>
      <use xlink:href="#DejaVuSans-31" x="63.623047"/>
      <use xlink:href="#DejaVuSans-39" x="127.246094"/>
     </g>
    </g>
   </g>
   <g id="text_58">
    <g clip-path="url(#p9a98e20a60)">
     <!-- 349 -->
     <g transform="translate(1122.843443 260.166089) scale(0.09 -0.09)">
      <use xlink:href="#DejaVuSans-33"/>
      <use xlink:href="#DejaVuSans-34" x="63.623047"/>
      <use xlink:href="#DejaVuSans-39" x="127.246094"/>
     </g>
    </g>
   </g>
   <g id="text_59">
    <g clip-path="url(#p9a98e20a60)">
     <!-- 122 -->
     <g transform="translate(1141.222362 587.27841) scale(0.09 -0.09)">
      <use xlink:href="#DejaVuSans-31"/>
      <use xlink:href="#DejaVuSans-32" x="63.623047"/>
      <use xlink:href="#DejaVuSans-32" x="127.246094"/>
     </g>
    </g>
   </g>
   <g id="text_60">
    <g clip-path="url(#p9a98e20a60)">
     <!-- 128 -->
     <g transform="translate(1163.028659 587.27841) scale(0.09 -0.09)">
      <use xlink:href="#DejaVuSans-31"/>
      <use xlink:href="#DejaVuSans-32" x="63.623047"/>
      <use xlink:href="#DejaVuSans-38" x="127.246094"/>
     </g>
    </g>
   </g>
   <g id="text_61">
    <g clip-path="url(#p9a98e20a60)">
     <!-- 613 -->
     <g transform="translate(1174.093789 217.697983) scale(0.09 -0.09)">
      <use xlink:href="#DejaVuSans-36"/>
      <use xlink:href="#DejaVuSans-31" x="63.623047"/>
      <use xlink:href="#DejaVuSans-33" x="127.246094"/>
     </g>
    </g>
   </g>
   <g id="text_62">
    <g clip-path="url(#p9a98e20a60)">
     <!-- 151 -->
     <g transform="translate(1184.834957 587.27841) scale(0.09 -0.09)">
      <use xlink:href="#DejaVuSans-31"/>
      <use xlink:href="#DejaVuSans-35" x="63.623047"/>
      <use xlink:href="#DejaVuSans-31" x="127.246094"/>
     </g>
    </g>
   </g>
   <g id="text_63">
    <g clip-path="url(#p9a98e20a60)">
     <!-- 539 -->
     <g transform="translate(1192.078672 906.918444) scale(0.09 -0.09)">
      <use xlink:href="#DejaVuSans-35"/>
      <use xlink:href="#DejaVuSans-33" x="63.623047"/>
      <use xlink:href="#DejaVuSans-39" x="127.246094"/>
     </g>
    </g>
   </g>
   <g id="text_64">
    <g clip-path="url(#p9a98e20a60)">
     <!-- 155 -->
     <g transform="translate(1206.641255 587.27841) scale(0.09 -0.09)">
      <use xlink:href="#DejaVuSans-31"/>
      <use xlink:href="#DejaVuSans-35" x="63.623047"/>
      <use xlink:href="#DejaVuSans-35" x="127.246094"/>
     </g>
    </g>
   </g>
   <g id="text_65">
    <g clip-path="url(#p9a98e20a60)">
     <!-- 324 -->
     <g transform="translate(1225.637835 909.249112) scale(0.09 -0.09)">
      <use xlink:href="#DejaVuSans-33"/>
      <use xlink:href="#DejaVuSans-32" x="63.623047"/>
      <use xlink:href="#DejaVuSans-34" x="127.246094"/>
     </g>
    </g>
   </g>
   <g id="text_66">
    <g clip-path="url(#p9a98e20a60)">
     <!-- 170 -->
     <g transform="translate(1228.447553 587.27841) scale(0.09 -0.09)">
      <use xlink:href="#DejaVuSans-31"/>
      <use xlink:href="#DejaVuSans-37" x="63.623047"/>
      <use xlink:href="#DejaVuSans-30" x="127.246094"/>
     </g>
    </g>
   </g>
   <g id="text_67">
    <g clip-path="url(#p9a98e20a60)">
     <!-- 187 -->
     <g transform="translate(1250.25385 587.27841) scale(0.09 -0.09)">
      <use xlink:href="#DejaVuSans-31"/>
      <use xlink:href="#DejaVuSans-38" x="63.623047"/>
      <use xlink:href="#DejaVuSans-37" x="127.246094"/>
     </g>
    </g>
   </g>
   <g id="text_68">
    <g clip-path="url(#p9a98e20a60)">
     <!-- 234 -->
     <g transform="translate(1261.697918 219.376653) scale(0.09 -0.09)">
      <use xlink:href="#DejaVuSans-32"/>
      <use xlink:href="#DejaVuSans-33" x="63.623047"/>
      <use xlink:href="#DejaVuSans-34" x="127.246094"/>
     </g>
    </g>
   </g>
   <g id="text_69">
    <g clip-path="url(#p9a98e20a60)">
     <!-- 193 -->
     <g transform="translate(1272.060148 587.27841) scale(0.09 -0.09)">
      <use xlink:href="#DejaVuSans-31"/>
      <use xlink:href="#DejaVuSans-39" x="63.623047"/>
      <use xlink:href="#DejaVuSans-33" x="127.246094"/>
     </g>
    </g>
   </g>
   <g id="text_70">
    <g clip-path="url(#p9a98e20a60)">
     <!-- 249 -->
     <g transform="translate(1292.429378 241.087422) scale(0.09 -0.09)">
      <use xlink:href="#DejaVuSans-32"/>
      <use xlink:href="#DejaVuSans-34" x="63.623047"/>
      <use xlink:href="#DejaVuSans-39" x="127.246094"/>
     </g>
    </g>
   </g>
   <g id="text_71">
    <g clip-path="url(#p9a98e20a60)">
     <!-- 329 -->
     <g transform="translate(1313.013329 936.348516) scale(0.09 -0.09)">
      <use xlink:href="#DejaVuSans-33"/>
      <use xlink:href="#DejaVuSans-32" x="63.623047"/>
      <use xlink:href="#DejaVuSans-39" x="127.246094"/>
     </g>
    </g>
   </g>
   <g id="text_72">
    <g clip-path="url(#p9a98e20a60)">
     <!-- 310 -->
     <g transform="translate(1336.039687 286.178689) scale(0.09 -0.09)">
      <use xlink:href="#DejaVuSans-33"/>
      <use xlink:href="#DejaVuSans-31" x="63.623047"/>
      <use xlink:href="#DejaVuSans-30" x="127.246094"/>
     </g>
    </g>
   </g>
   <g id="text_73">
    <g clip-path="url(#p9a98e20a60)">
     <!-- 300 -->
     <g transform="translate(1337.479041 587.27841) scale(0.09 -0.09)">
      <use xlink:href="#DejaVuSans-33"/>
      <use xlink:href="#DejaVuSans-30" x="63.623047"/>
      <use xlink:href="#DejaVuSans-30" x="127.246094"/>
     </g>
    </g>
   </g>
   <g id="text_74">
    <g clip-path="url(#p9a98e20a60)">
     <!-- 302 -->
     <g transform="translate(1367.413456 276.691451) scale(0.09 -0.09)">
      <use xlink:href="#DejaVuSans-33"/>
      <use xlink:href="#DejaVuSans-30" x="63.623047"/>
      <use xlink:href="#DejaVuSans-32" x="127.246094"/>
     </g>
    </g>
   </g>
   <g id="text_75">
    <g clip-path="url(#p9a98e20a60)">
     <!-- 331 -->
     <g transform="translate(1359.285339 587.27841) scale(0.09 -0.09)">
      <use xlink:href="#DejaVuSans-33"/>
      <use xlink:href="#DejaVuSans-33" x="63.623047"/>
      <use xlink:href="#DejaVuSans-31" x="127.246094"/>
     </g>
    </g>
   </g>
   <g id="text_76">
    <g clip-path="url(#p9a98e20a60)">
     <!-- 554 -->
     <g transform="translate(1381.648797 877.201779) scale(0.09 -0.09)">
      <use xlink:href="#DejaVuSans-35"/>
      <use xlink:href="#DejaVuSans-35" x="63.623047"/>
      <use xlink:href="#DejaVuSans-34" x="127.246094"/>
     </g>
    </g>
   </g>
   <g id="text_77">
    <g clip-path="url(#p9a98e20a60)">
     <!-- 337 -->
     <g transform="translate(1381.091636 587.27841) scale(0.09 -0.09)">
      <use xlink:href="#DejaVuSans-33"/>
      <use xlink:href="#DejaVuSans-33" x="63.623047"/>
      <use xlink:href="#DejaVuSans-37" x="127.246094"/>
     </g>
    </g>
   </g>
   <g id="text_78">
    <g clip-path="url(#p9a98e20a60)">
     <!-- 626 -->
     <g transform="translate(1413.735911 842.873679) scale(0.09 -0.09)">
      <use xlink:href="#DejaVuSans-36"/>
      <use xlink:href="#DejaVuSans-32" x="63.623047"/>
      <use xlink:href="#DejaVuSans-36" x="127.246094"/>
     </g>
    </g>
   </g>
   <g id="text_79">
    <g clip-path="url(#p9a98e20a60)">
     <!-- 359 -->
     <g transform="translate(1402.897934 587.27841) scale(0.09 -0.09)">
      <use xlink:href="#DejaVuSans-33"/>
      <use xlink:href="#DejaVuSans-35" x="63.623047"/>
      <use xlink:href="#DejaVuSans-39" x="127.246094"/>
     </g>
    </g>
   </g>
   <g id="text_80">
    <g clip-path="url(#p9a98e20a60)">
     <!-- 603 -->
     <g transform="translate(1434.306997 322.864474) scale(0.09 -0.09)">
      <use xlink:href="#DejaVuSans-36"/>
      <use xlink:href="#DejaVuSans-30" x="63.623047"/>
      <use xlink:href="#DejaVuSans-33" x="127.246094"/>
     </g>
    </g>
   </g>
   <g id="text_81">
    <g clip-path="url(#p9a98e20a60)">
     <!-- 538 -->
     <g transform="translate(1424.704232 587.27841) scale(0.09 -0.09)">
      <use xlink:href="#DejaVuSans-35"/>
      <use xlink:href="#DejaVuSans-33" x="63.623047"/>
      <use xlink:href="#DejaVuSans-38" x="127.246094"/>
     </g>
    </g>
   </g>
   <g id="text_82">
    <g clip-path="url(#p9a98e20a60)">
     <!-- 588 -->
     <g transform="translate(1469.368152 645.594536) scale(0.09 -0.09)">
      <use xlink:href="#DejaVuSans-35"/>
      <use xlink:href="#DejaVuSans-38" x="63.623047"/>
      <use xlink:href="#DejaVuSans-38" x="127.246094"/>
     </g>
    </g>
   </g>
   <g id="text_83">
    <g clip-path="url(#p9a98e20a60)">
     <!-- 551 -->
     <g transform="translate(1446.510529 587.27841) scale(0.09 -0.09)">
      <use xlink:href="#DejaVuSans-35"/>
      <use xlink:href="#DejaVuSans-35" x="63.623047"/>
      <use xlink:href="#DejaVuSans-31" x="127.246094"/>
     </g>
    </g>
   </g>
   <g id="text_84">
    <g clip-path="url(#p9a98e20a60)">
     <!-- 620 -->
     <g transform="translate(1490.356906 612.263379) scale(0.09 -0.09)">
      <use xlink:href="#DejaVuSans-36"/>
      <use xlink:href="#DejaVuSans-32" x="63.623047"/>
      <use xlink:href="#DejaVuSans-30" x="127.246094"/>
     </g>
    </g>
   </g>
  </g>
 </g>
 <defs>
  <clipPath id="p9a98e20a60">
   <rect x="225" y="138.24" width="1395" height="887.04"/>
  </clipPath>
 </defs>
</svg>
